<svg width="28" height="28" viewBox="0 0 28 28" fill="none" xmlns="http://www.w3.org/2000/svg">
<path d="M22.3125 7V18.375C22.3125 18.7231 22.1742 19.0569 21.9281 19.3031C21.6819 19.5492 21.3481 19.6875 21 19.6875C20.6519 19.6875 20.3181 19.5492 20.0719 19.3031C19.8258 19.0569 19.6875 18.7231 19.6875 18.375V10.1719L7.92859 21.9286C7.68202 22.1752 7.3476 22.3137 6.9989 22.3137C6.6502 22.3137 6.31579 22.1752 6.06922 21.9286C5.82265 21.682 5.68413 21.3476 5.68413 20.9989C5.68413 20.6502 5.82265 20.3158 6.06922 20.0692L17.8281 8.3125H9.625C9.2769 8.3125 8.94306 8.17422 8.69692 7.92808C8.45078 7.68194 8.3125 7.3481 8.3125 7C8.3125 6.6519 8.45078 6.31806 8.69692 6.07192C8.94306 5.82578 9.2769 5.6875 9.625 5.6875H21C21.3481 5.6875 21.6819 5.82578 21.9281 6.07192C22.1742 6.31806 22.3125 6.6519 22.3125 7Z" fill="black" fill-opacity="0.2"/>
</svg>
