<svg width="28" height="28" viewBox="0 0 28 28" fill="none" xmlns="http://www.w3.org/2000/svg">
<path d="M8.04199 14.8954L16.4795 23.3329C16.7173 23.5707 17.0397 23.7043 17.376 23.7043C17.7122 23.7043 18.0347 23.5707 18.2725 23.3329C18.5102 23.0952 18.6438 22.7727 18.6438 22.4365C18.6438 22.1002 18.5102 21.7777 18.2725 21.54L10.7304 14L18.2704 6.45795C18.3881 6.34022 18.4815 6.20045 18.5452 6.04663C18.6089 5.89282 18.6417 5.72795 18.6417 5.56146C18.6417 5.39497 18.6089 5.23011 18.5452 5.07629C18.4815 4.92247 18.3881 4.7827 18.2704 4.66498C18.1526 4.54725 18.0129 4.45386 17.859 4.39015C17.7052 4.32643 17.5404 4.29364 17.3739 4.29364C17.2074 4.29364 17.0425 4.32643 16.8887 4.39015C16.7349 4.45386 16.5951 4.54725 16.4774 4.66498L8.03988 13.1025C7.92203 13.2202 7.82858 13.36 7.76488 13.5139C7.70118 13.6679 7.66849 13.8328 7.66869 13.9994C7.66889 14.166 7.70196 14.3309 7.76602 14.4846C7.83008 14.6384 7.92386 14.778 8.04199 14.8954Z" fill="#5A0B4D"/>
</svg>
