<svg width="28" height="28" viewBox="0 0 28 28" fill="none" xmlns="http://www.w3.org/2000/svg">
<path opacity="0.2" d="M22.75 21H5.25C5.09685 20.9991 4.94663 20.958 4.81435 20.8808C4.68206 20.8036 4.57235 20.6931 4.49617 20.5602C4.42 20.4274 4.38003 20.2768 4.38027 20.1237C4.3805 19.9705 4.42092 19.8201 4.4975 19.6875C5.21828 18.4406 6.125 16.1667 6.125 12.25C6.125 10.1614 6.95469 8.15838 8.43154 6.68153C9.90838 5.20468 11.9114 4.375 14 4.375C16.0886 4.375 18.0916 5.20468 19.5685 6.68153C21.0453 8.15838 21.875 10.1614 21.875 12.25C21.875 16.1678 22.7828 18.4406 23.5047 19.6875C23.5814 19.8203 23.6218 19.9709 23.6219 20.1242C23.6221 20.2776 23.5819 20.4282 23.5055 20.5612C23.429 20.6941 23.319 20.8046 23.1864 20.8816C23.0538 20.9586 22.9033 20.9995 22.75 21Z" fill="black" fill-opacity="0.2"/>
<path d="M24.5 7.77653C24.294 7.88319 24.0541 7.9037 23.833 7.83356C23.6119 7.76342 23.4277 7.60836 23.3209 7.40246C22.4857 5.75253 21.2216 4.35801 19.6612 3.36543C19.564 3.3041 19.4798 3.22422 19.4134 3.13034C19.3471 3.03647 19.2998 2.93044 19.2744 2.81831C19.2491 2.70619 19.246 2.59016 19.2654 2.47685C19.2849 2.36354 19.3265 2.25517 19.3878 2.15793C19.4491 2.06069 19.529 1.97649 19.6229 1.91012C19.7168 1.84375 19.8228 1.79652 19.9349 1.77113C20.0471 1.74574 20.1631 1.74268 20.2764 1.76214C20.3897 1.78159 20.4981 1.82316 20.5953 1.8845C22.4138 3.04883 23.8904 4.67527 24.8741 6.59746C24.9807 6.80344 25.0012 7.04333 24.9311 7.26443C24.8609 7.48552 24.7059 7.66971 24.5 7.77653ZM3.90578 7.87496C4.06608 7.8749 4.22328 7.83079 4.36023 7.74747C4.49718 7.66414 4.6086 7.5448 4.68234 7.40246C5.51753 5.75253 6.7817 4.35801 8.34203 3.36543C8.53841 3.24157 8.67755 3.04476 8.72883 2.81831C8.78011 2.59186 8.73933 2.35432 8.61546 2.15793C8.4916 1.96155 8.2948 1.82241 8.06835 1.77113C7.8419 1.71985 7.60435 1.76063 7.40796 1.8845C5.5895 3.04883 4.11291 4.67527 3.12921 6.59746C3.06013 6.73081 3.02653 6.8797 3.03165 7.02979C3.03677 7.17989 3.08044 7.32614 3.15845 7.45447C3.23646 7.5828 3.34619 7.6889 3.47707 7.76254C3.60796 7.83618 3.75559 7.8749 3.90578 7.87496ZM24.2605 19.2434C24.4155 19.5092 24.4977 19.8112 24.4987 20.119C24.4998 20.4267 24.4197 20.7292 24.2665 20.9961C24.1133 21.263 23.8924 21.4848 23.6262 21.6391C23.3599 21.7934 23.0577 21.8747 22.75 21.875H18.2875C18.0867 22.864 17.5501 23.7531 16.7687 24.3918C15.9873 25.0305 15.0092 25.3793 14 25.3793C12.9908 25.3793 12.0127 25.0305 11.2313 24.3918C10.4499 23.7531 9.91332 22.864 9.7125 21.875H5.25C4.94246 21.8744 4.64051 21.7927 4.37457 21.6383C4.10862 21.4838 3.88808 21.262 3.73515 20.9952C3.58222 20.7284 3.50231 20.4259 3.50346 20.1184C3.50461 19.8109 3.58679 19.5091 3.74171 19.2434C4.72718 17.5426 5.25 15.1243 5.25 12.25C5.25 9.92932 6.17187 7.70372 7.81281 6.06278C9.45375 4.42184 11.6794 3.49996 14 3.49996C16.3206 3.49996 18.5462 4.42184 20.1872 6.06278C21.8281 7.70372 22.75 9.92932 22.75 12.25C22.75 15.1232 23.2728 17.5415 24.2605 19.2434ZM16.4741 21.875H11.5259C11.7072 22.3862 12.0424 22.8287 12.4854 23.1417C12.9285 23.4546 13.4576 23.6227 14 23.6227C14.5424 23.6227 15.0715 23.4546 15.5145 23.1417C15.9576 22.8287 16.2928 22.3862 16.4741 21.875ZM22.75 20.125C21.5862 18.1267 21 15.4776 21 12.25C21 10.3934 20.2625 8.61297 18.9497 7.30022C17.637 5.98746 15.8565 5.24996 14 5.24996C12.1435 5.24996 10.363 5.98746 9.05025 7.30022C7.73749 8.61297 7 10.3934 7 12.25C7 15.4787 6.41156 18.1278 5.25 20.125H22.75Z" fill="black" fill-opacity="0.2"/>
</svg>
