<svg width="32" height="32" viewBox="0 0 32 32" fill="none" xmlns="http://www.w3.org/2000/svg">
<path d="M25.75 7.22505H22.3716L20.7105 4.73392C20.6215 4.60053 20.501 4.49115 20.3596 4.41547C20.2182 4.33979 20.0604 4.30015 19.9 4.30005H12.1C11.9397 4.30015 11.7818 4.33979 11.6404 4.41547C11.4991 4.49115 11.3785 4.60053 11.2895 4.73392L9.62717 7.22505H6.25001C5.47425 7.22505 4.73027 7.53322 4.18173 8.08176C3.63318 8.63031 3.32501 9.37429 3.32501 10.15V23.8C3.32501 24.5758 3.63318 25.3198 4.18173 25.8683C4.73027 26.4169 5.47425 26.725 6.25001 26.725H25.75C26.5258 26.725 27.2698 26.4169 27.8183 25.8683C28.3668 25.3198 28.675 24.5758 28.675 23.8V10.15C28.675 9.37429 28.3668 8.63031 27.8183 8.08176C27.2698 7.53322 26.5258 7.22505 25.75 7.22505ZM19.5112 20.68C18.4274 21.4869 17.0986 21.8956 15.7486 21.8372C14.3987 21.7789 13.1101 21.257 12.1 20.3595V20.875C12.1 21.1336 11.9973 21.3816 11.8144 21.5645C11.6316 21.7473 11.3836 21.85 11.125 21.85C10.8664 21.85 10.6184 21.7473 10.4356 21.5645C10.2527 21.3816 10.15 21.1336 10.15 20.875V17.95C10.15 17.6915 10.2527 17.4435 10.4356 17.2606C10.6184 17.0778 10.8664 16.975 11.125 16.975H14.05C14.3086 16.975 14.5566 17.0778 14.7394 17.2606C14.9223 17.4435 15.025 17.6915 15.025 17.95C15.025 18.2086 14.9223 18.4566 14.7394 18.6395C14.5566 18.8223 14.3086 18.925 14.05 18.925H13.4224C14.0958 19.5151 14.9512 19.8564 15.8459 19.8921C16.7406 19.9278 17.6204 19.6558 18.3388 19.1213C18.5455 18.9658 18.8055 18.8988 19.0616 18.935C19.3177 18.9713 19.5489 19.1077 19.7044 19.3144C19.8599 19.5211 19.9269 19.7811 19.8906 20.0373C19.8544 20.2934 19.7179 20.5246 19.5112 20.68ZM21.85 15.025C21.85 15.2836 21.7473 15.5316 21.5644 15.7145C21.3816 15.8973 21.1336 16 20.875 16H17.95C17.6914 16 17.4434 15.8973 17.2606 15.7145C17.0777 15.5316 16.975 15.2836 16.975 15.025C16.975 14.7665 17.0777 14.5185 17.2606 14.3356C17.4434 14.1528 17.6914 14.05 17.95 14.05H18.5777C17.9042 13.46 17.0488 13.1187 16.1541 13.083C15.2595 13.0473 14.3796 13.3193 13.6612 13.8538C13.4545 14.0093 13.1945 14.0763 12.9384 14.0401C12.6823 14.0038 12.4511 13.8674 12.2956 13.6607C12.1401 13.454 12.0732 13.1939 12.1094 12.9378C12.1456 12.6817 12.2821 12.4505 12.4888 12.295C13.5726 11.4882 14.9014 11.0795 16.2514 11.1379C17.6013 11.1962 18.8899 11.7181 19.9 12.6156V12.1C19.9 11.8415 20.0027 11.5935 20.1856 11.4106C20.3684 11.2278 20.6164 11.125 20.875 11.125C21.1336 11.125 21.3816 11.2278 21.5644 11.4106C21.7473 11.5935 21.85 11.8415 21.85 12.1V15.025Z" fill="#343330"/>
</svg>
