<svg width="28" height="28" viewBox="0 0 28 28" fill="none" xmlns="http://www.w3.org/2000/svg">
<path d="M20.1786 14.9285L11.4286 23.6785C11.182 23.9251 10.8476 24.0636 10.4989 24.0636C10.1502 24.0636 9.81579 23.9251 9.56922 23.6785C9.32265 23.432 9.18413 23.0976 9.18413 22.7489C9.18413 22.4002 9.32265 22.0657 9.56922 21.8192L17.3906 14L9.5714 6.17855C9.44932 6.05646 9.35247 5.91152 9.2864 5.752C9.22032 5.59249 9.18631 5.42152 9.18631 5.24886C9.18631 5.0762 9.22032 4.90523 9.2864 4.74572C9.35247 4.5862 9.44932 4.44126 9.5714 4.31917C9.69349 4.19708 9.83843 4.10024 9.99795 4.03416C10.1575 3.96809 10.3284 3.93408 10.5011 3.93408C10.6738 3.93408 10.8447 3.96809 11.0042 4.03416C11.1638 4.10024 11.3087 4.19708 11.4308 4.31917L20.1808 13.0692C20.303 13.1913 20.3999 13.3363 20.466 13.4959C20.532 13.6555 20.5659 13.8266 20.5657 13.9993C20.5655 14.1721 20.5312 14.3431 20.4648 14.5025C20.3984 14.662 20.3011 14.8068 20.1786 14.9285Z" fill="black"/>
</svg>
