<svg width="22" height="19" viewBox="0 0 22 19" fill="none" xmlns="http://www.w3.org/2000/svg">
<path d="M21.2 15.6334L13.0016 1.39556C12.7967 1.04674 12.5042 0.75752 12.1532 0.556559C11.8021 0.355598 11.4046 0.249878 11 0.249878C10.5955 0.249878 10.198 0.355598 9.8469 0.556559C9.49581 0.75752 9.20334 1.04674 8.99847 1.39556L0.800029 15.6334C0.602907 15.9708 0.499023 16.3545 0.499023 16.7453C0.499023 17.136 0.602907 17.5197 0.800029 17.8571C1.00228 18.2081 1.29425 18.4989 1.64599 18.6997C1.99773 18.9005 2.39658 19.0041 2.80159 18.9999H19.1985C19.6032 19.0038 20.0016 18.9 20.353 18.6992C20.7044 18.4984 20.9961 18.2078 21.1982 17.8571C21.3956 17.5199 21.4998 17.1363 21.5001 16.7455C21.5004 16.3547 21.3969 15.9709 21.2 15.6334ZM10.25 7.74994C10.25 7.55103 10.329 7.36026 10.4697 7.21961C10.6104 7.07896 10.8011 6.99994 11 6.99994C11.1989 6.99994 11.3897 7.07896 11.5304 7.21961C11.671 7.36026 11.75 7.55103 11.75 7.74994V11.4999C11.75 11.6989 11.671 11.8896 11.5304 12.0303C11.3897 12.1709 11.1989 12.2499 11 12.2499C10.8011 12.2499 10.6104 12.1709 10.4697 12.0303C10.329 11.8896 10.25 11.6989 10.25 11.4999V7.74994ZM11 15.9999C10.7775 15.9999 10.56 15.934 10.375 15.8103C10.19 15.6867 10.0458 15.511 9.96066 15.3055C9.87552 15.0999 9.85324 14.8737 9.89665 14.6555C9.94005 14.4372 10.0472 14.2368 10.2045 14.0794C10.3619 13.9221 10.5623 13.815 10.7806 13.7716C10.9988 13.7281 11.225 13.7504 11.4305 13.8356C11.6361 13.9207 11.8118 14.0649 11.9354 14.2499C12.059 14.4349 12.125 14.6524 12.125 14.8749C12.125 15.1733 12.0065 15.4595 11.7955 15.6704C11.5845 15.8814 11.2984 15.9999 11 15.9999Z" fill="white"/>
</svg>
