<svg width="34" height="34" viewBox="0 0 34 34" fill="none" xmlns="http://www.w3.org/2000/svg">
<circle cx="17" cy="17" r="16" fill="#FAFAFA" stroke="#D7DBEA" stroke-width="0.679258"/>
<path d="M18.6001 16.9998C18.6001 17.3162 18.5063 17.6256 18.3304 17.8887C18.1546 18.1518 17.9048 18.3569 17.6124 18.478C17.32 18.5991 16.9983 18.6308 16.688 18.569C16.3776 18.5073 16.0925 18.3549 15.8687 18.1312C15.645 17.9074 15.4926 17.6223 15.4308 17.3119C15.3691 17.0016 15.4008 16.6798 15.5219 16.3875C15.643 16.0951 15.8481 15.8452 16.1112 15.6694C16.3743 15.4936 16.6836 15.3998 17.0001 15.3998C17.4244 15.3998 17.8314 15.5684 18.1315 15.8684C18.4315 16.1685 18.6001 16.5754 18.6001 16.9998ZM10.2001 15.3998C9.88365 15.3998 9.5743 15.4936 9.31119 15.6694C9.04807 15.8452 8.84299 16.0951 8.72189 16.3875C8.60079 16.6798 8.56911 17.0016 8.63084 17.3119C8.69258 17.6223 8.84496 17.9074 9.06873 18.1312C9.29249 18.3549 9.57758 18.5073 9.88795 18.569C10.1983 18.6308 10.52 18.5991 10.8124 18.478C11.1048 18.3569 11.3546 18.1518 11.5304 17.8887C11.7063 17.6256 11.8001 17.3162 11.8001 16.9998C11.8001 16.5754 11.6315 16.1685 11.3315 15.8684C11.0314 15.5684 10.6244 15.3998 10.2001 15.3998ZM23.8001 15.3998C23.4836 15.3998 23.1743 15.4936 22.9112 15.6694C22.6481 15.8452 22.443 16.0951 22.3219 16.3875C22.2008 16.6798 22.1691 17.0016 22.2308 17.3119C22.2926 17.6223 22.445 17.9074 22.6687 18.1312C22.8925 18.3549 23.1776 18.5073 23.488 18.569C23.7983 18.6308 24.12 18.5991 24.4124 18.478C24.7048 18.3569 24.9546 18.1518 25.1304 17.8887C25.3063 17.6256 25.4001 17.3162 25.4001 16.9998C25.4001 16.5754 25.2315 16.1685 24.9315 15.8684C24.6314 15.5684 24.2244 15.3998 23.8001 15.3998Z" fill="#343330"/>
</svg>
