<svg width="34" height="34" viewBox="0 0 34 34" fill="none" xmlns="http://www.w3.org/2000/svg">
<path d="M17 0.75C13.7861 0.75 10.6443 1.70305 7.97199 3.48862C5.29969 5.27419 3.21689 7.81209 1.98696 10.7814C0.757041 13.7507 0.435237 17.018 1.06225 20.1702C1.68926 23.3224 3.23692 26.2179 5.50952 28.4905C7.78213 30.7631 10.6776 32.3107 13.8298 32.9378C16.982 33.5648 20.2493 33.243 23.2186 32.013C26.1879 30.7831 28.7258 28.7003 30.5114 26.028C32.297 23.3557 33.25 20.2139 33.25 17C33.2455 12.6916 31.5319 8.56102 28.4855 5.51454C25.439 2.46806 21.3084 0.75455 17 0.75ZM22.8844 21.1156C23.0005 21.2318 23.0926 21.3696 23.1555 21.5214C23.2184 21.6731 23.2507 21.8358 23.2507 22C23.2507 22.1642 23.2184 22.3269 23.1555 22.4786C23.0926 22.6304 23.0005 22.7682 22.8844 22.8844C22.7682 23.0005 22.6304 23.0926 22.4786 23.1555C22.3269 23.2183 22.1643 23.2507 22 23.2507C21.8358 23.2507 21.6731 23.2183 21.5214 23.1555C21.3696 23.0926 21.2318 23.0005 21.1156 22.8844L17 18.7672L12.8844 22.8844C12.7682 23.0005 12.6304 23.0926 12.4786 23.1555C12.3269 23.2183 12.1643 23.2507 12 23.2507C11.8358 23.2507 11.6731 23.2183 11.5214 23.1555C11.3696 23.0926 11.2318 23.0005 11.1156 22.8844C10.9995 22.7682 10.9074 22.6304 10.8445 22.4786C10.7817 22.3269 10.7493 22.1642 10.7493 22C10.7493 21.8358 10.7817 21.6731 10.8445 21.5214C10.9074 21.3696 10.9995 21.2318 11.1156 21.1156L15.2328 17L11.1156 12.8844C10.8811 12.6498 10.7493 12.3317 10.7493 12C10.7493 11.6683 10.8811 11.3502 11.1156 11.1156C11.3502 10.8811 11.6683 10.7493 12 10.7493C12.3317 10.7493 12.6498 10.8811 12.8844 11.1156L17 15.2328L21.1156 11.1156C21.2318 10.9995 21.3696 10.9074 21.5214 10.8445C21.6731 10.7817 21.8358 10.7493 22 10.7493C22.1643 10.7493 22.3269 10.7817 22.4786 10.8445C22.6304 10.9074 22.7682 10.9995 22.8844 11.1156C23.0005 11.2318 23.0926 11.3696 23.1555 11.5214C23.2184 11.6731 23.2507 11.8358 23.2507 12C23.2507 12.1642 23.2184 12.3269 23.1555 12.4786C23.0926 12.6304 23.0005 12.7682 22.8844 12.8844L18.7672 17L22.8844 21.1156Z" fill="black" fill-opacity="0.2"/>
</svg>
