<svg width="32" height="32" viewBox="0 0 32 32" fill="none" xmlns="http://www.w3.org/2000/svg">
<path d="M31 15.9999C31.0063 18.3814 30.2337 20.6996 28.8 22.6012C28.7211 22.7062 28.6222 22.7947 28.509 22.8615C28.3959 22.9284 28.2707 22.9723 28.1405 22.9907C28.0104 23.0092 27.8779 23.0019 27.7507 22.9691C27.6234 22.9364 27.5038 22.8789 27.3988 22.7999C27.2937 22.721 27.2052 22.6221 27.1384 22.5089C27.0715 22.3958 27.0276 22.2706 27.0092 22.1405C26.9907 22.0103 26.9981 21.8779 27.0308 21.7506C27.0636 21.6233 27.1211 21.5037 27.2 21.3987C28.3735 19.844 29.0057 17.9478 29 15.9999C29 13.613 28.0518 11.3238 26.364 9.63595C24.6761 7.94813 22.387 6.99991 20 6.99991C17.6131 6.99991 15.3239 7.94813 13.636 9.63595C11.9482 11.3238 11 13.613 11 15.9999C11 16.2651 10.8946 16.5195 10.7071 16.707C10.5196 16.8946 10.2652 16.9999 10 16.9999C9.73479 16.9999 9.48044 16.8946 9.2929 16.707C9.10536 16.5195 9.00001 16.2651 9.00001 15.9999C8.99952 14.9908 9.1379 13.9863 9.41126 13.0149C9.27501 12.9999 9.13751 12.9999 9.00001 12.9999C7.40871 12.9999 5.88258 13.6321 4.75737 14.7573C3.63215 15.8825 3.00001 17.4086 3.00001 18.9999C3.00001 20.5912 3.63215 22.1173 4.75737 23.2426C5.88258 24.3678 7.40871 24.9999 9.00001 24.9999H12C12.2652 24.9999 12.5196 25.1053 12.7071 25.2928C12.8946 25.4803 13 25.7347 13 25.9999C13 26.2651 12.8946 26.5195 12.7071 26.707C12.5196 26.8946 12.2652 26.9999 12 26.9999H9.00001C7.90023 27.0002 6.8122 26.7737 5.8039 26.3345C4.79559 25.8954 3.88865 25.2531 3.13972 24.4477C2.3908 23.6423 1.81598 22.6912 1.45115 21.6537C1.08633 20.6162 0.939347 19.5146 1.01938 18.4177C1.09941 17.3209 1.40475 16.2523 1.91631 15.2787C2.42787 14.3052 3.13467 13.4475 3.99257 12.7594C4.85047 12.0713 5.84104 11.5674 6.90241 11.2793C7.96378 10.9912 9.07316 10.925 10.1613 11.0849C11.2693 8.86886 13.0929 7.09176 15.3369 6.04145C17.5809 4.99115 20.1137 4.72916 22.5252 5.29792C24.9366 5.86668 27.0854 7.23288 28.6236 9.17522C30.1617 11.1176 30.9991 13.5223 31 15.9999ZM22.2925 21.2924L20 23.5862V15.9999C20 15.7347 19.8947 15.4803 19.7071 15.2928C19.5196 15.1053 19.2652 14.9999 19 14.9999C18.7348 14.9999 18.4804 15.1053 18.2929 15.2928C18.1054 15.4803 18 15.7347 18 15.9999V23.5862L15.7075 21.2924C15.5199 21.1048 15.2654 20.9994 15 20.9994C14.7346 20.9994 14.4801 21.1048 14.2925 21.2924C14.1049 21.4801 13.9995 21.7346 13.9995 21.9999C13.9995 22.2653 14.1049 22.5198 14.2925 22.7074L18.2925 26.7074C18.3854 26.8004 18.4957 26.8742 18.6171 26.9245C18.7385 26.9748 18.8686 27.0007 19 27.0007C19.1314 27.0007 19.2615 26.9748 19.3829 26.9245C19.5043 26.8742 19.6146 26.8004 19.7075 26.7074L23.7075 22.7074C23.8951 22.5198 24.0006 22.2653 24.0006 21.9999C24.0006 21.7346 23.8951 21.4801 23.7075 21.2924C23.5199 21.1048 23.2654 20.9994 23 20.9994C22.7346 20.9994 22.4801 21.1048 22.2925 21.2924Z" fill="#5A0B4D"/>
</svg>
