<svg width="29" height="28" viewBox="0 0 29 28" fill="none" xmlns="http://www.w3.org/2000/svg">
<path opacity="0.2" d="M23.9584 5.25V9.625H4.70837V5.25C4.70837 5.01794 4.80056 4.79538 4.96466 4.63128C5.12875 4.46719 5.35131 4.375 5.58337 4.375H23.0834C23.3154 4.375 23.538 4.46719 23.7021 4.63128C23.8662 4.79538 23.9584 5.01794 23.9584 5.25Z" fill="#343330"/>
<path d="M23.0834 3.5H20.4584V2.625C20.4584 2.39294 20.3662 2.17038 20.2021 2.00628C20.038 1.84219 19.8154 1.75 19.5834 1.75C19.3513 1.75 19.1287 1.84219 18.9647 2.00628C18.8006 2.17038 18.7084 2.39294 18.7084 2.625V3.5H9.95837V2.625C9.95837 2.39294 9.86619 2.17038 9.70209 2.00628C9.538 1.84219 9.31544 1.75 9.08337 1.75C8.85131 1.75 8.62875 1.84219 8.46466 2.00628C8.30056 2.17038 8.20837 2.39294 8.20837 2.625V3.5H5.58337C5.11925 3.5 4.67413 3.68437 4.34594 4.01256C4.01775 4.34075 3.83337 4.78587 3.83337 5.25V22.75C3.83337 23.2141 4.01775 23.6592 4.34594 23.9874C4.67413 24.3156 5.11925 24.5 5.58337 24.5H23.0834C23.5475 24.5 23.9926 24.3156 24.3208 23.9874C24.649 23.6592 24.8334 23.2141 24.8334 22.75V5.25C24.8334 4.78587 24.649 4.34075 24.3208 4.01256C23.9926 3.68437 23.5475 3.5 23.0834 3.5ZM8.20837 5.25V6.125C8.20837 6.35706 8.30056 6.57962 8.46466 6.74372C8.62875 6.90781 8.85131 7 9.08337 7C9.31544 7 9.538 6.90781 9.70209 6.74372C9.86619 6.57962 9.95837 6.35706 9.95837 6.125V5.25H18.7084V6.125C18.7084 6.35706 18.8006 6.57962 18.9647 6.74372C19.1287 6.90781 19.3513 7 19.5834 7C19.8154 7 20.038 6.90781 20.2021 6.74372C20.3662 6.57962 20.4584 6.35706 20.4584 6.125V5.25H23.0834V8.75H5.58337V5.25H8.20837ZM23.0834 22.75H5.58337V10.5H23.0834V22.75Z" fill="#343330"/>
</svg>
