<svg width="29" height="28" viewBox="0 0 29 28" fill="none" xmlns="http://www.w3.org/2000/svg">
<path opacity="0.2" d="M23.4013 13.4727L25.2366 11.1759C24.9891 10.2453 24.6187 9.35189 24.1352 8.51915L21.2149 8.19103C20.9816 7.92819 20.7329 7.67947 20.4701 7.44618L20.1419 4.52478C19.3083 4.04421 18.4146 3.67642 17.4841 3.43103L15.1873 5.26524C14.8361 5.24446 14.484 5.24446 14.1329 5.26524L11.836 3.42993C10.9085 3.67821 10.018 4.04858 9.18804 4.53134L8.85991 7.45165C8.59708 7.68494 8.34835 7.93366 8.11507 8.19649L5.19366 8.52462C4.7131 9.35827 4.34531 10.252 4.09991 11.1824L5.93413 13.4793C5.91335 13.8305 5.91335 14.1825 5.93413 14.5337L4.09882 16.8306C4.34636 17.7611 4.71676 18.6545 5.20022 19.4873L8.12053 19.8154C8.35382 20.0782 8.60254 20.327 8.86538 20.5602L9.1935 23.4817C10.0272 23.9622 10.9209 24.33 11.8513 24.5754L14.1482 22.7412C14.4993 22.762 14.8514 22.762 15.2026 22.7412L17.4994 24.5765C18.43 24.3289 19.3234 23.9586 20.1562 23.4751L20.4843 20.5548C20.7471 20.3215 20.9958 20.0728 21.2291 19.8099L24.1505 19.4818C24.6311 18.6482 24.9989 17.7544 25.2443 16.824L23.4101 14.5271C23.4279 14.1758 23.425 13.8237 23.4013 13.4727ZM14.6666 18.3749C13.8013 18.3749 12.9555 18.1183 12.236 17.6376C11.5165 17.1569 10.9558 16.4736 10.6247 15.6742C10.2935 14.8747 10.2069 13.9951 10.3757 13.1464C10.5445 12.2977 10.9612 11.5182 11.573 10.9063C12.1849 10.2945 12.9644 9.87781 13.8131 9.709C14.6618 9.54019 15.5414 9.62682 16.3409 9.95796C17.1403 10.2891 17.8236 10.8498 18.3043 11.5693C18.785 12.2888 19.0416 13.1346 19.0416 13.9999C19.0416 15.1603 18.5807 16.2731 17.7602 17.0935C16.9397 17.914 15.827 18.3749 14.6666 18.3749Z" fill="#343330"/>
<path d="M14.6666 8.75005C13.6283 8.75005 12.6132 9.05796 11.7499 9.63484C10.8865 10.2117 10.2136 11.0316 9.81625 11.991C9.41889 12.9503 9.31492 14.0059 9.51749 15.0243C9.72007 16.0427 10.2201 16.9781 10.9543 17.7124C11.6885 18.4466 12.624 18.9466 13.6424 19.1492C14.6608 19.3517 15.7164 19.2478 16.6757 18.8504C17.635 18.4531 18.455 17.7802 19.0318 16.9168C19.6087 16.0534 19.9166 15.0384 19.9166 14C19.9152 12.6081 19.3616 11.2736 18.3773 10.2893C17.3931 9.30509 16.0586 8.7515 14.6666 8.75005ZM14.6666 17.5C13.9744 17.5 13.2977 17.2948 12.7221 16.9102C12.1465 16.5256 11.6979 15.979 11.433 15.3394C11.1681 14.6999 11.0988 13.9962 11.2339 13.3172C11.3689 12.6383 11.7023 12.0147 12.1917 11.5252C12.6812 11.0357 13.3049 10.7023 13.9838 10.5673C14.6627 10.4323 15.3665 10.5016 16.006 10.7665C16.6455 11.0314 17.1922 11.48 17.5768 12.0556C17.9613 12.6311 18.1666 13.3078 18.1666 14C18.1666 14.9283 17.7979 15.8185 17.1415 16.4749C16.4851 17.1313 15.5949 17.5 14.6666 17.5ZM24.2916 14.2363C24.296 14.0788 24.296 13.9213 24.2916 13.7638L25.9235 11.725C26.0091 11.618 26.0683 11.4924 26.0964 11.3582C26.1245 11.2241 26.1207 11.0853 26.0854 10.9529C25.8174 9.94743 25.4172 8.98198 24.8954 8.08177C24.827 7.96399 24.732 7.8638 24.6181 7.78918C24.5042 7.71456 24.3744 7.66756 24.2391 7.65193L21.6447 7.36317C21.5368 7.24942 21.4274 7.14005 21.3166 7.03505L21.0104 4.43411C20.9946 4.29872 20.9474 4.16888 20.8726 4.05494C20.7978 3.94101 20.6974 3.84612 20.5794 3.77786C19.6793 3.25642 18.7138 2.85698 17.7083 2.59005C17.5759 2.55468 17.4371 2.5509 17.303 2.57902C17.1688 2.60713 17.0432 2.66636 16.9361 2.75192L14.9029 4.37505C14.7454 4.37505 14.5879 4.37505 14.4304 4.37505L12.3916 2.74646C12.2846 2.66089 12.1589 2.60166 12.0248 2.57355C11.8907 2.54543 11.7518 2.54921 11.6194 2.58458C10.614 2.85258 9.64855 3.25273 8.74833 3.77458C8.63056 3.84297 8.53037 3.93791 8.45575 4.05183C8.38112 4.16576 8.33412 4.29554 8.31849 4.43083L8.02974 7.02958C7.91599 7.13823 7.80661 7.2476 7.70161 7.35771L5.10068 7.6563C4.96528 7.67205 4.83544 7.71922 4.72151 7.79403C4.60757 7.86885 4.51269 7.96926 4.44443 8.08724C3.92309 8.98757 3.52331 9.953 3.25552 10.9583C3.2203 11.0908 3.2167 11.2297 3.245 11.3638C3.27331 11.498 3.33274 11.6236 3.41849 11.7305L5.04161 13.7638C5.04161 13.9213 5.04161 14.0788 5.04161 14.2363L3.41302 16.2751C3.32746 16.3821 3.26823 16.5077 3.24011 16.6419C3.21199 16.776 3.21577 16.9148 3.25115 17.0472C3.51914 18.0527 3.9193 19.0181 4.44115 19.9183C4.50953 20.0361 4.60447 20.1363 4.7184 20.2109C4.83233 20.2855 4.9621 20.3325 5.0974 20.3482L7.69177 20.6369C7.80042 20.7507 7.90979 20.8601 8.0199 20.965L8.32287 23.566C8.33862 23.7014 8.38578 23.8312 8.4606 23.9452C8.53542 24.0591 8.63582 24.154 8.7538 24.2222C9.65414 24.7436 10.6196 25.1434 11.6249 25.4111C11.7574 25.4464 11.8963 25.45 12.0304 25.4217C12.1645 25.3934 12.2901 25.3339 12.3971 25.2482L14.4304 23.625C14.5879 23.6294 14.7454 23.6294 14.9029 23.625L16.9416 25.2569C17.0487 25.3425 17.1743 25.4017 17.3084 25.4298C17.4426 25.458 17.5814 25.4542 17.7138 25.4188C18.7194 25.1513 19.6849 24.7511 20.5849 24.2288C20.7027 24.1604 20.8029 24.0655 20.8775 23.9515C20.9521 23.8376 20.9991 23.7078 21.0147 23.5725L21.3035 20.9782C21.4172 20.8703 21.5266 20.7609 21.6316 20.6501L24.2326 20.3438C24.3679 20.328 24.4978 20.2809 24.6117 20.2061C24.7257 20.1312 24.8205 20.0308 24.8888 19.9129C25.4101 19.0125 25.8099 18.0471 26.0777 17.0418C26.1129 16.9093 26.1165 16.7704 26.0882 16.6363C26.0599 16.5021 26.0005 16.3765 25.9147 16.2696L24.2916 14.2363ZM22.5307 13.5254C22.5493 13.8415 22.5493 14.1586 22.5307 14.4747C22.5176 14.6912 22.5855 14.9048 22.721 15.0741L24.273 17.0133C24.0949 17.5793 23.8669 18.1283 23.5916 18.654L21.1197 18.934C20.9045 18.9579 20.7057 19.0607 20.5619 19.2227C20.3514 19.4595 20.1272 19.6837 19.8904 19.8943C19.7284 20.0381 19.6255 20.2368 19.6016 20.4521L19.3271 22.9218C18.8015 23.1972 18.2525 23.4252 17.6865 23.6032L15.7461 22.0511C15.5909 21.9271 15.398 21.8596 15.1993 21.8597H15.1468C14.8306 21.8783 14.5136 21.8783 14.1974 21.8597C13.981 21.8473 13.7676 21.9151 13.598 22.0501L11.6533 23.6032C11.0874 23.4251 10.5383 23.1971 10.0127 22.9218L9.73271 20.4532C9.70881 20.2379 9.60593 20.0392 9.44396 19.8954C9.20717 19.6848 8.98293 19.4606 8.7724 19.2238C8.6286 19.0618 8.42985 18.9589 8.21458 18.935L5.7449 18.6594C5.46948 18.1339 5.24144 17.5848 5.06349 17.0188L6.61552 15.0785C6.75104 14.9092 6.81886 14.6956 6.80583 14.4791C6.78724 14.1629 6.78724 13.8459 6.80583 13.5297C6.81886 13.3133 6.75104 13.0997 6.61552 12.9304L5.06349 10.9868C5.24158 10.4208 5.46961 9.87176 5.7449 9.34614L8.21349 9.06614C8.42876 9.04225 8.62751 8.93936 8.7713 8.77739C8.98184 8.54061 9.20608 8.31637 9.44286 8.10583C9.60548 7.96195 9.70879 7.76274 9.73271 7.54693L10.0072 5.07833C10.5328 4.80292 11.0818 4.57488 11.6479 4.39692L13.5882 5.94896C13.7575 6.08448 13.9711 6.1523 14.1876 6.13927C14.5037 6.12068 14.8207 6.12068 15.1369 6.13927C15.3533 6.15167 15.5667 6.08392 15.7363 5.94896L17.6799 4.39692C18.2459 4.57502 18.7949 4.80305 19.3205 5.07833L19.6005 7.54693C19.6244 7.76219 19.7273 7.96095 19.8893 8.10474C20.1261 8.31527 20.3503 8.53951 20.5608 8.7763C20.7046 8.93827 20.9034 9.04115 21.1186 9.06505L23.5883 9.33958C23.8638 9.86513 24.0918 10.4142 24.2697 10.9802L22.7177 12.9205C22.5809 13.0912 22.513 13.307 22.5274 13.5254H22.5307Z" fill="#343330"/>
</svg>
