<svg width="28" height="28" viewBox="0 0 28 28" fill="none" xmlns="http://www.w3.org/2000/svg">
<path opacity="0.2" d="M13.125 11.375C13.125 12.2403 12.8684 13.0862 12.3877 13.8056C11.9069 14.5251 11.2237 15.0858 10.4242 15.417C9.62481 15.7481 8.74515 15.8347 7.89648 15.6659C7.04782 15.4971 6.26826 15.0804 5.65641 14.4686C5.04456 13.8567 4.62788 13.0772 4.45907 12.2285C4.29026 11.3799 4.3769 10.5002 4.70803 9.70076C5.03916 8.90133 5.59992 8.21805 6.31938 7.73732C7.03885 7.25659 7.88471 7 8.75 7C9.91032 7 11.0231 7.46094 11.8436 8.28141C12.6641 9.10188 13.125 10.2147 13.125 11.375Z" fill="#343330"/>
<path d="M15.75 8.75002C15.75 8.51796 15.8422 8.2954 16.0063 8.13131C16.1704 7.96721 16.3929 7.87502 16.625 7.87502H27.125C27.3571 7.87502 27.5796 7.96721 27.7437 8.13131C27.9078 8.2954 28 8.51796 28 8.75002C28 8.98209 27.9078 9.20465 27.7437 9.36874C27.5796 9.53284 27.3571 9.62502 27.125 9.62502H16.625C16.3929 9.62502 16.1704 9.53284 16.0063 9.36874C15.8422 9.20465 15.75 8.98209 15.75 8.75002ZM27.125 13.125H16.625C16.3929 13.125 16.1704 13.2172 16.0063 13.3813C15.8422 13.5454 15.75 13.768 15.75 14C15.75 14.2321 15.8422 14.4546 16.0063 14.6187C16.1704 14.7828 16.3929 14.875 16.625 14.875H27.125C27.3571 14.875 27.5796 14.7828 27.7437 14.6187C27.9078 14.4546 28 14.2321 28 14C28 13.768 27.9078 13.5454 27.7437 13.3813C27.5796 13.2172 27.3571 13.125 27.125 13.125ZM27.125 18.375H19.25C19.0179 18.375 18.7954 18.4672 18.6313 18.6313C18.4672 18.7954 18.375 19.018 18.375 19.25C18.375 19.4821 18.4672 19.7046 18.6313 19.8687C18.7954 20.0328 19.0179 20.125 19.25 20.125H27.125C27.3571 20.125 27.5796 20.0328 27.7437 19.8687C27.9078 19.7046 28 19.4821 28 19.25C28 19.018 27.9078 18.7954 27.7437 18.6313C27.5796 18.4672 27.3571 18.375 27.125 18.375ZM16.5977 20.7813C16.6263 20.8926 16.6327 21.0085 16.6165 21.1222C16.6003 21.236 16.5618 21.3455 16.5033 21.4444C16.4448 21.5434 16.3674 21.6298 16.2755 21.6988C16.1836 21.7678 16.079 21.818 15.9677 21.8466C15.8963 21.8658 15.8228 21.8754 15.7489 21.875C15.5548 21.8751 15.3663 21.8107 15.2128 21.6919C15.0594 21.5731 14.9498 21.4067 14.9012 21.2188C14.2275 18.6003 11.5828 16.625 8.7489 16.625C5.915 16.625 3.27031 18.5992 2.59656 21.2188C2.53854 21.4436 2.3936 21.6361 2.19361 21.7541C1.99362 21.872 1.75497 21.9057 1.53015 21.8477C1.30534 21.7897 1.11278 21.6447 0.994841 21.4447C0.876898 21.2447 0.843231 21.0061 0.901247 20.7813C1.51265 18.4067 3.29 16.4839 5.54531 15.5313C4.67691 14.8624 4.03964 13.9385 3.72289 12.8891C3.40613 11.8398 3.42577 10.7176 3.77906 9.67992C4.13235 8.64228 4.80156 7.74124 5.69284 7.10317C6.58412 6.4651 7.65277 6.12201 8.7489 6.12201C9.84504 6.12201 10.9137 6.4651 11.805 7.10317C12.6962 7.74124 13.3655 8.64228 13.7187 9.67992C14.072 10.7176 14.0917 11.8398 13.7749 12.8891C13.4582 13.9385 12.8209 14.8624 11.9525 15.5313C14.2089 16.4839 15.9862 18.4067 16.5977 20.7813ZM8.75 14.875C9.44223 14.875 10.1189 14.6698 10.6945 14.2852C11.2701 13.9006 11.7187 13.354 11.9836 12.7144C12.2485 12.0749 12.3178 11.3711 12.1827 10.6922C12.0477 10.0133 11.7144 9.38963 11.2249 8.90015C10.7354 8.41067 10.1117 8.07732 9.43281 7.94228C8.75388 7.80723 8.05015 7.87654 7.4106 8.14145C6.77106 8.40635 6.22444 8.85496 5.83985 9.43053C5.45527 10.0061 5.25 10.6828 5.25 11.375C5.25 12.3033 5.61875 13.1935 6.27512 13.8499C6.9315 14.5063 7.82174 14.875 8.75 14.875Z" fill="#343330"/>
</svg>
