<svg width="28" height="28" viewBox="0 0 28 28" fill="none" xmlns="http://www.w3.org/2000/svg">
<path d="M15.75 8.75009C15.75 8.51802 15.8422 8.29546 16.0063 8.13137C16.1704 7.96727 16.3929 7.87509 16.625 7.87509H27.125C27.3571 7.87509 27.5796 7.96727 27.7437 8.13137C27.9078 8.29546 28 8.51802 28 8.75009C28 8.98215 27.9078 9.20471 27.7437 9.3688C27.5796 9.5329 27.3571 9.62509 27.125 9.62509H16.625C16.3929 9.62509 16.1704 9.5329 16.0063 9.3688C15.8422 9.20471 15.75 8.98215 15.75 8.75009ZM27.125 13.1251H16.625C16.3929 13.1251 16.1704 13.2173 16.0063 13.3814C15.8422 13.5455 15.75 13.768 15.75 14.0001C15.75 14.2322 15.8422 14.4547 16.0063 14.6188C16.1704 14.7829 16.3929 14.8751 16.625 14.8751H27.125C27.3571 14.8751 27.5796 14.7829 27.7437 14.6188C27.9078 14.4547 28 14.2322 28 14.0001C28 13.768 27.9078 13.5455 27.7437 13.3814C27.5796 13.2173 27.3571 13.1251 27.125 13.1251ZM27.125 18.3751H19.25C19.0179 18.3751 18.7954 18.4673 18.6313 18.6314C18.4672 18.7955 18.375 19.018 18.375 19.2501C18.375 19.4822 18.4672 19.7047 18.6313 19.8688C18.7954 20.0329 19.0179 20.1251 19.25 20.1251H27.125C27.3571 20.1251 27.5796 20.0329 27.7437 19.8688C27.9078 19.7047 28 19.4822 28 19.2501C28 19.018 27.9078 18.7955 27.7437 18.6314C27.5796 18.4673 27.3571 18.3751 27.125 18.3751ZM11.9536 15.5313C12.822 14.8625 13.4593 13.9386 13.776 12.8892C14.0928 11.8398 14.0731 10.7176 13.7199 9.67998C13.3666 8.64234 12.6974 7.7413 11.8061 7.10323C10.9148 6.46516 9.84615 6.12207 8.75001 6.12207C7.65388 6.12207 6.58523 6.46516 5.69395 7.10323C4.80267 7.7413 4.13346 8.64234 3.78017 9.67998C3.42688 10.7176 3.40724 11.8398 3.724 12.8892C4.04075 13.9386 4.67802 14.8625 5.54642 15.5313C3.29111 16.4862 1.51376 18.4079 0.902358 20.7813C0.868963 20.9107 0.865624 21.0459 0.892595 21.1768C0.919567 21.3076 0.976134 21.4305 1.05796 21.5361C1.13979 21.6417 1.2447 21.7271 1.36466 21.7859C1.48462 21.8446 1.61644 21.8752 1.75001 21.8751H15.75C15.8836 21.8752 16.0154 21.8446 16.1354 21.7859C16.2553 21.7271 16.3602 21.6417 16.4421 21.5361C16.5239 21.4305 16.5805 21.3076 16.6074 21.1768C16.6344 21.0459 16.6311 20.9107 16.5977 20.7813C15.9863 18.4068 14.2089 16.4851 11.9536 15.5313Z" fill="#5A0B4D"/>
</svg>
