<svg width="20" height="20" viewBox="0 0 20 20" fill="none" xmlns="http://www.w3.org/2000/svg">
<g clip-path="url(#clip0_147_701)">
<path d="M10 20C15.5228 20 20 15.5228 20 10C20 4.47715 15.5228 0 10 0C4.47715 0 0 4.47715 0 10C0 15.5228 4.47715 20 10 20Z" fill="#F0F0F0"/>
<path d="M9.99992 0C6.03531 0 2.60969 2.30723 0.992188 5.65219H19.0076C17.3902 2.30723 13.9645 0 9.99992 0Z" fill="black"/>
<path d="M9.99992 20C6.03531 20 2.60969 17.6928 0.992188 14.3478H19.0076C17.3902 17.6928 13.9645 20 9.99992 20Z" fill="#496E2D"/>
<path d="M19.5278 6.95648H0.472227C0.165898 7.91621 0 8.93867 0 9.99996C0 11.0612 0.165898 12.0837 0.472227 13.0434H19.5277C19.8341 12.0837 20 11.0612 20 9.99996C20 8.93867 19.8341 7.91621 19.5278 6.95648Z" fill="#A2001D"/>
<path d="M13.114 4.62113L11.9297 4.07452L10.0001 8.4437L8.07049 4.07452L6.88623 4.62113L9.28186 9.99999L6.88623 15.3789L8.07049 15.9255L10.0001 11.5563L11.9297 15.9255L13.114 15.3789L10.7183 9.99999L13.114 4.62113Z" fill="#F0F0F0"/>
<path d="M10.8045 5.13632C10.346 4.63565 10.0001 4.34784 10.0001 4.34784C10.0001 4.34784 9.65424 4.63561 9.1958 5.13632V14.8637C9.65424 15.3644 10.0001 15.6522 10.0001 15.6522C10.0001 15.6522 10.346 15.3644 10.8045 14.8637V5.13632Z" fill="#F0F0F0"/>
<path d="M7.82617 7.00176V12.9983C8.31062 13.8567 8.90355 14.5603 9.34793 15.0268V4.97333C8.90355 5.43977 8.31059 6.14341 7.82617 7.00176Z" fill="#A2001D"/>
<path d="M12.1741 7.00176C11.6896 6.14337 11.0967 5.43977 10.6523 4.97333V15.0268C11.0967 14.5603 11.6896 13.8567 12.1741 12.9983V7.00176Z" fill="#A2001D"/>
<path d="M12.1738 7.00165V12.9982C12.6643 12.1291 13.0434 11.1014 13.0434 9.99996C13.0434 8.89852 12.6643 7.87079 12.1738 7.00165Z" fill="black"/>
<path d="M7.82611 7.00165V12.9982C7.33568 12.1291 6.95654 11.1014 6.95654 9.99996C6.95654 8.89852 7.33568 7.87079 7.82611 7.00165Z" fill="black"/>
</g>
<defs>
<clipPath id="clip0_147_701">
<rect width="20" height="20" fill="white"/>
</clipPath>
</defs>
</svg>
