<svg width="32" height="32" viewBox="0 0 32 32" fill="none" xmlns="http://www.w3.org/2000/svg">
<path d="M26.4715 26.0693C26.5594 26.1637 26.6277 26.2747 26.6724 26.3957C26.7172 26.5167 26.7374 26.6454 26.732 26.7744C26.7266 26.9033 26.6957 27.0298 26.6411 27.1467C26.5864 27.2636 26.5091 27.3684 26.4136 27.4552C26.3181 27.542 26.2064 27.6089 26.0848 27.6522C25.9633 27.6955 25.8343 27.7142 25.7055 27.7072C25.5767 27.7003 25.4505 27.6679 25.3343 27.6118C25.2181 27.5558 25.1141 27.4772 25.0285 27.3807L20.3522 22.2376L12.813 30.3154C12.6683 30.4698 12.4774 30.5729 12.269 30.6093C12.0606 30.6456 11.846 30.6132 11.6576 30.5169C11.4693 30.4206 11.3174 30.2656 11.2248 30.0754C11.1322 29.8851 11.1041 29.67 11.1445 29.4623L12.9312 20.5252L5.90754 17.8878C5.7567 17.8314 5.62219 17.7385 5.51601 17.6174C5.40984 17.4963 5.33532 17.3508 5.2991 17.1939C5.26289 17.037 5.26611 16.8735 5.30848 16.7181C5.35086 16.5627 5.43106 16.4203 5.54192 16.3035L10.317 11.1847L5.52851 5.93069C5.4406 5.83625 5.37231 5.72531 5.32759 5.60428C5.28287 5.48325 5.26261 5.35456 5.268 5.22565C5.27339 5.09674 5.30431 4.97018 5.35896 4.85331C5.41362 4.73643 5.49093 4.63157 5.58642 4.5448C5.6819 4.45802 5.79366 4.39106 5.91521 4.3478C6.03676 4.30453 6.16569 4.28582 6.29453 4.29276C6.42336 4.29969 6.54954 4.33212 6.66575 4.38818C6.78196 4.44423 6.88589 4.52279 6.97151 4.61931L26.4715 26.0693ZM22.3107 18.5935C22.4012 18.6932 22.5114 18.773 22.6344 18.8279C22.7573 18.8829 22.8902 18.9118 23.0249 18.9128H23.0322C23.166 18.9127 23.2984 18.8851 23.421 18.8316C23.5437 18.7781 23.654 18.7 23.7452 18.602L26.463 15.6904C26.5725 15.5736 26.6515 15.4316 26.6931 15.2769C26.7347 15.1222 26.7375 14.9597 26.7014 14.8037C26.6652 14.6477 26.5912 14.503 26.4859 14.3824C26.3805 14.2618 26.2471 14.169 26.0974 14.1122L19.0688 11.4784L20.8555 2.54134C20.896 2.33369 20.8678 2.11852 20.7752 1.92829C20.6827 1.73806 20.5307 1.5831 20.3424 1.48678C20.154 1.39047 19.9395 1.35804 19.731 1.39437C19.5226 1.43071 19.3317 1.53385 19.187 1.68822L13.5954 7.67594C13.4284 7.85488 13.3349 8.09009 13.3333 8.33483C13.3317 8.57958 13.4222 8.81598 13.5869 8.99706L22.3107 18.5935Z" fill="#343330"/>
</svg>
