<svg width="28" height="28" viewBox="0 0 28 28" fill="none" xmlns="http://www.w3.org/2000/svg">
<path opacity="0.2" d="M25.375 12.6875V19.25C25.375 19.4821 25.2828 19.7046 25.1187 19.8687C24.9546 20.0328 24.7321 20.125 24.5 20.125H14V12.6875C14 11.1791 13.4008 9.73244 12.3342 8.66583C11.2676 7.59922 9.82092 7 8.3125 7H19.6875C21.1959 7 22.6426 7.59922 23.7092 8.66583C24.7758 9.73244 25.375 11.1791 25.375 12.6875Z" fill="black" fill-opacity="0.2"/>
<path d="M11.375 16.625C11.375 16.8571 11.2828 17.0796 11.1187 17.2437C10.9546 17.4078 10.7321 17.5 10.5 17.5H6.125C5.89294 17.5 5.67038 17.4078 5.50628 17.2437C5.34219 17.0796 5.25 16.8571 5.25 16.625C5.25 16.3929 5.34219 16.1704 5.50628 16.0063C5.67038 15.8422 5.89294 15.75 6.125 15.75H10.5C10.7321 15.75 10.9546 15.8422 11.1187 16.0063C11.2828 16.1704 11.375 16.3929 11.375 16.625ZM26.25 12.6875V19.25C26.25 19.7141 26.0656 20.1592 25.7374 20.4874C25.4092 20.8156 24.9641 21 24.5 21H14.875V24.5C14.875 24.7321 14.7828 24.9546 14.6187 25.1187C14.4546 25.2828 14.2321 25.375 14 25.375C13.7679 25.375 13.5454 25.2828 13.3813 25.1187C13.2172 24.9546 13.125 24.7321 13.125 24.5V21H3.5C3.03587 21 2.59075 20.8156 2.26256 20.4874C1.93437 20.1592 1.75 19.7141 1.75 19.25V12.6875C1.75203 10.9476 2.44408 9.27962 3.67435 8.04935C4.90462 6.81908 6.57264 6.12703 8.3125 6.125H16.625V2.625C16.625 2.39294 16.7172 2.17038 16.8813 2.00628C17.0454 1.84219 17.2679 1.75 17.5 1.75H21C21.2321 1.75 21.4546 1.84219 21.6187 2.00628C21.7828 2.17038 21.875 2.39294 21.875 2.625C21.875 2.85706 21.7828 3.07962 21.6187 3.24372C21.4546 3.40781 21.2321 3.5 21 3.5H18.375V6.125H19.6875C21.4274 6.12703 23.0954 6.81908 24.3256 8.04935C25.5559 9.27962 26.248 10.9476 26.25 12.6875ZM13.125 19.25V12.6875C13.125 11.4111 12.618 10.1871 11.7155 9.28455C10.8129 8.38203 9.58885 7.875 8.3125 7.875C7.03615 7.875 5.81207 8.38203 4.90955 9.28455C4.00703 10.1871 3.5 11.4111 3.5 12.6875V19.25H13.125ZM24.5 12.6875C24.4986 11.4116 23.9911 10.1884 23.0889 9.28615C22.1866 8.38394 20.9634 7.87645 19.6875 7.875H18.375V15.75C18.375 15.9821 18.2828 16.2046 18.1187 16.3687C17.9546 16.5328 17.7321 16.625 17.5 16.625C17.2679 16.625 17.0454 16.5328 16.8813 16.3687C16.7172 16.2046 16.625 15.9821 16.625 15.75V7.875H12.7695C13.4337 8.48833 13.9637 9.23257 14.3261 10.0608C14.6884 10.8891 14.8753 11.7834 14.875 12.6875V19.25H24.5V12.6875Z" fill="black" fill-opacity="0.2"/>
</svg>
