<svg width="28" height="28" viewBox="0 0 28 28" fill="none" xmlns="http://www.w3.org/2000/svg">
<path opacity="0.2" d="M26.0532 9.59121L14.6782 23.3101C14.5961 23.4088 14.4933 23.4882 14.3771 23.5427C14.2608 23.5973 14.134 23.6255 14.0056 23.6255C13.8772 23.6255 13.7504 23.5973 13.6341 23.5427C13.5179 23.4882 13.415 23.4088 13.3329 23.3101L1.94699 9.59121C1.87317 9.50246 1.81815 9.39963 1.78527 9.28896C1.7524 9.1783 1.74236 9.06211 1.75576 8.94744C1.76916 8.83278 1.80572 8.72203 1.86322 8.62193C1.92073 8.52183 1.99798 8.43445 2.09028 8.36512C5.52092 5.77577 9.70198 4.375 14.0001 4.375C18.2983 4.375 22.4793 5.77577 25.91 8.36512C26.0023 8.43445 26.0795 8.52183 26.137 8.62193C26.1945 8.72203 26.2311 8.83278 26.2445 8.94744C26.2579 9.06211 26.2478 9.1783 26.215 9.28896C26.1821 9.39963 26.1271 9.50246 26.0532 9.59121Z" fill="#49454F"/>
<path d="M5.89741 3.78651C5.82056 3.6999 5.7273 3.62939 5.62301 3.57908C5.51872 3.52878 5.40548 3.49967 5.28986 3.49345C5.17423 3.48723 5.05853 3.50402 4.94944 3.54285C4.84036 3.58167 4.74006 3.64177 4.65437 3.71964C4.56868 3.79751 4.4993 3.89162 4.45025 3.99651C4.40119 4.10139 4.37345 4.21497 4.36861 4.33066C4.36378 4.44635 4.38196 4.56185 4.42209 4.67046C4.46222 4.77907 4.52351 4.87864 4.60241 4.96339L5.10006 5.51026C3.85099 6.1082 2.66554 6.83083 1.56178 7.66714C1.3757 7.80883 1.22004 7.98654 1.1041 8.18967C0.988162 8.3928 0.914306 8.6172 0.886937 8.84948C0.859428 9.08119 0.879585 9.31608 0.946168 9.53972C1.01275 9.76336 1.12436 9.97102 1.27412 10.15L12.6491 23.8689C12.8136 24.0674 13.02 24.2271 13.2536 24.3362C13.4872 24.4453 13.7421 24.5013 13.9999 24.5C14.257 24.5006 14.511 24.4444 14.7438 24.3352C14.9766 24.2261 15.1823 24.0669 15.3463 23.8689L18.4198 20.1632L22.1024 24.2101C22.1792 24.2967 22.2725 24.3672 22.3768 24.4175C22.4811 24.4678 22.5943 24.4969 22.71 24.5032C22.8256 24.5094 22.9413 24.4926 23.0504 24.4538C23.1595 24.4149 23.2598 24.3549 23.3454 24.277C23.4311 24.1991 23.5005 24.105 23.5496 24.0001C23.5986 23.8952 23.6264 23.7816 23.6312 23.666C23.636 23.5503 23.6179 23.4348 23.5777 23.3262C23.5376 23.2175 23.4763 23.118 23.3974 23.0332L5.89741 3.78651ZM13.9999 22.75L2.63475 9.04964C3.78017 8.18307 5.02132 7.45093 6.33381 6.86761L17.2308 18.8551L13.9999 22.75ZM26.7257 10.15L21.3204 16.6665C21.2471 16.755 21.157 16.8282 21.0554 16.8818C20.9538 16.9355 20.8426 16.9687 20.7282 16.9794C20.4972 17.001 20.267 16.93 20.0883 16.7819C19.9096 16.6338 19.797 16.4208 19.7754 16.1897C19.7538 15.9587 19.8248 15.7285 19.9729 15.5498L25.3651 9.04964C22.0969 6.56911 18.1028 5.23378 13.9999 5.24995C12.8114 5.2492 11.6254 5.35904 10.4573 5.57808C10.3444 5.59962 10.2283 5.59872 10.1158 5.57542C10.0032 5.55212 9.89637 5.50688 9.80131 5.44229C9.70624 5.37769 9.62483 5.29501 9.56172 5.19895C9.49862 5.10289 9.45504 4.99535 9.4335 4.88245C9.41195 4.76956 9.41286 4.65352 9.43616 4.54097C9.45945 4.42843 9.50469 4.32157 9.56929 4.22651C9.63388 4.13144 9.71657 4.05003 9.81262 3.98693C9.90868 3.92382 10.0162 3.88025 10.1291 3.8587C11.4054 3.61883 12.7013 3.49872 13.9999 3.49995C18.4915 3.48306 22.8632 4.94775 26.438 7.66714C26.6241 7.80883 26.7798 7.98654 26.8957 8.18967C27.0117 8.3928 27.0855 8.6172 27.1129 8.84948C27.1404 9.08119 27.1202 9.31608 27.0536 9.53972C26.9871 9.76336 26.8755 9.97102 26.7257 10.15Z" fill="#49454F"/>
</svg>
