<svg width="28" height="28" viewBox="0 0 28 28" fill="none" xmlns="http://www.w3.org/2000/svg">
<path d="M15.3129 22.312C15.3129 22.5716 15.2359 22.8253 15.0917 23.0411C14.9475 23.257 14.7425 23.4252 14.5027 23.5246C14.2629 23.6239 13.999 23.6499 13.7444 23.5992C13.4898 23.5486 13.2559 23.4236 13.0723 23.24C12.8888 23.0565 12.7638 22.8226 12.7131 22.568C12.6625 22.3134 12.6885 22.0495 12.7878 21.8097C12.8872 21.5699 13.0554 21.3649 13.2712 21.2207C13.4871 21.0764 13.7408 20.9995 14.0004 20.9995C14.3485 20.9995 14.6823 21.1377 14.9285 21.3839C15.1746 21.63 15.3129 21.9639 15.3129 22.312ZM25.931 9.51509C22.5672 6.75597 18.3511 5.24805 14.0004 5.24805C9.64977 5.24805 5.43362 6.75597 2.06979 9.51509C1.98095 9.58806 1.90736 9.6778 1.8532 9.77921C1.79905 9.88062 1.7654 9.9917 1.75418 10.1061C1.74296 10.2205 1.75438 10.336 1.7878 10.446C1.82121 10.556 1.87596 10.6584 1.94893 10.7472C2.0219 10.836 2.11164 10.9096 2.21305 10.9638C2.31446 11.0179 2.42554 11.0516 2.53995 11.0628C2.77102 11.0855 3.00162 11.0154 3.18104 10.8681C6.23174 8.36634 10.0551 6.99912 14.0004 6.99912C17.9457 6.99912 21.7691 8.36634 24.8198 10.8681C24.9992 11.0154 25.2298 11.0855 25.4609 11.0628C25.6919 11.0401 25.9045 10.9266 26.0519 10.7472C26.1993 10.5678 26.2693 10.3372 26.2466 10.1061C26.224 9.87505 26.1105 9.66245 25.931 9.51509ZM22.4223 13.4274C20.0263 11.5305 17.0598 10.4983 14.0037 10.4983C10.9476 10.4983 7.98114 11.5305 5.5851 13.4274C5.40322 13.5716 5.28606 13.7821 5.2594 14.0127C5.23273 14.2432 5.29874 14.4749 5.44291 14.6568C5.58708 14.8387 5.7976 14.9558 6.02815 14.9825C6.25871 15.0092 6.49041 14.9432 6.67229 14.799C8.75901 13.1472 11.3424 12.2485 14.0037 12.2485C16.665 12.2485 19.2484 13.1472 21.3351 14.799C21.4252 14.8704 21.5284 14.9234 21.6389 14.9548C21.7494 14.9863 21.8651 14.9958 21.9792 14.9826C22.0934 14.9693 22.2038 14.9338 22.3043 14.8779C22.4047 14.822 22.4931 14.7469 22.5645 14.6568C22.6359 14.5668 22.6888 14.4635 22.7203 14.353C22.7518 14.2425 22.7612 14.1268 22.748 14.0127C22.7348 13.8985 22.6993 13.7881 22.6434 13.6876C22.5875 13.5872 22.5124 13.4988 22.4223 13.4274ZM18.8939 17.3387C17.4726 16.3057 15.7607 15.7494 14.0037 15.7494C12.2467 15.7494 10.5348 16.3057 9.11354 17.3387C8.92586 17.4753 8.80014 17.6809 8.76404 17.9102C8.72794 18.1395 8.78441 18.3738 8.92104 18.5615C9.05767 18.7492 9.26326 18.8749 9.49258 18.911C9.7219 18.9471 9.95617 18.8906 10.1439 18.754C11.2655 17.9383 12.6168 17.4988 14.0037 17.4988C15.3906 17.4988 16.7419 17.9383 17.8635 18.754C17.9565 18.8216 18.0618 18.8703 18.1736 18.8973C18.2853 18.9242 18.4013 18.9289 18.5148 18.911C18.6284 18.8931 18.7373 18.8531 18.8353 18.7931C18.9334 18.7331 19.0187 18.6544 19.0864 18.5615C19.154 18.4686 19.2027 18.3632 19.2296 18.2515C19.2566 18.1397 19.2612 18.0238 19.2434 17.9102C19.2255 17.7967 19.1854 17.6878 19.1254 17.5897C19.0655 17.4916 18.9868 17.4063 18.8939 17.3387Z" fill="white"/>
</svg>
