<svg width="28" height="28" viewBox="0 0 28 28" fill="none" xmlns="http://www.w3.org/2000/svg">
<path d="M19.8695 14.6195L11.1195 23.3696C11.0383 23.4508 10.9417 23.5153 10.8355 23.5593C10.7293 23.6033 10.6155 23.626 10.5005 23.626C10.3855 23.626 10.2717 23.6033 10.1655 23.5593C10.0592 23.5153 9.96272 23.4508 9.88142 23.3696C9.80013 23.2883 9.73564 23.1917 9.69164 23.0855C9.64764 22.9793 9.625 22.8655 9.625 22.7505C9.625 22.6355 9.64764 22.5217 9.69164 22.4155C9.73564 22.3092 9.80013 22.2127 9.88142 22.1314L18.0135 14.0005L9.88142 5.86955C9.71724 5.70536 9.625 5.48268 9.625 5.25049C9.625 5.01829 9.71724 4.79561 9.88142 4.63142C10.0456 4.46724 10.2683 4.375 10.5005 4.375C10.7327 4.375 10.9554 4.46724 11.1195 4.63142L19.8695 13.3814C19.9509 13.4627 20.0154 13.5592 20.0595 13.6654C20.1035 13.7716 20.1262 13.8855 20.1262 14.0005C20.1262 14.1155 20.1035 14.2293 20.0595 14.3356C20.0154 14.4418 19.9509 14.5383 19.8695 14.6195Z" fill="#5A0B4D"/>
</svg>
