<svg width="28" height="28" viewBox="0 0 28 28" fill="none" xmlns="http://www.w3.org/2000/svg">
<path opacity="0.2" d="M24.5 6.125V21.875C24.5 22.3391 24.3156 22.7842 23.9874 23.1124C23.6592 23.4406 23.2141 23.625 22.75 23.625H5.25V4.375H22.75C23.2141 4.375 23.6592 4.55937 23.9874 4.88756C24.3156 5.21575 24.5 5.66087 24.5 6.125Z" fill="black" fill-opacity="0.2"/>
<path d="M13.125 23.625C13.125 23.8571 13.0328 24.0796 12.8687 24.2437C12.7046 24.4078 12.4821 24.5 12.25 24.5H5.25C5.01794 24.5 4.79538 24.4078 4.63128 24.2437C4.46719 24.0796 4.375 23.8571 4.375 23.625V4.375C4.375 4.14294 4.46719 3.92038 4.63128 3.75628C4.79538 3.59219 5.01794 3.5 5.25 3.5H12.25C12.4821 3.5 12.7046 3.59219 12.8687 3.75628C13.0328 3.92038 13.125 4.14294 13.125 4.375C13.125 4.60706 13.0328 4.82962 12.8687 4.99372C12.7046 5.15781 12.4821 5.25 12.25 5.25H6.125V22.75H12.25C12.4821 22.75 12.7046 22.8422 12.8687 23.0063C13.0328 23.1704 13.125 23.3929 13.125 23.625ZM25.1191 13.3809L20.7441 9.00594C20.5799 8.84175 20.3572 8.74951 20.125 8.74951C19.8928 8.74951 19.6701 8.84175 19.5059 9.00594C19.3418 9.17012 19.2495 9.39281 19.2495 9.625C19.2495 9.85719 19.3418 10.0799 19.5059 10.2441L22.388 13.125H12.25C12.0179 13.125 11.7954 13.2172 11.6313 13.3813C11.4672 13.5454 11.375 13.7679 11.375 14C11.375 14.2321 11.4672 14.4546 11.6313 14.6187C11.7954 14.7828 12.0179 14.875 12.25 14.875H22.388L19.5059 17.7559C19.3418 17.9201 19.2495 18.1428 19.2495 18.375C19.2495 18.6072 19.3418 18.8299 19.5059 18.9941C19.6701 19.1582 19.8928 19.2505 20.125 19.2505C20.3572 19.2505 20.5799 19.1582 20.7441 18.9941L25.1191 14.6191C25.2004 14.5378 25.265 14.4413 25.309 14.3351C25.353 14.2288 25.3757 14.115 25.3757 14C25.3757 13.885 25.353 13.7712 25.309 13.6649C25.265 13.5587 25.2004 13.4622 25.1191 13.3809Z" fill="black" fill-opacity="0.2"/>
</svg>
