<svg width="28" height="28" viewBox="0 0 28 28" fill="none" xmlns="http://www.w3.org/2000/svg">
<path d="M14 14C14 14.2321 13.9078 14.4546 13.7437 14.6187C13.5796 14.7828 13.3571 14.875 13.125 14.875H5.25C5.01794 14.875 4.79538 14.7828 4.63128 14.6187C4.46719 14.4546 4.375 14.2321 4.375 14C4.375 13.7679 4.46719 13.5454 4.63128 13.3813C4.79538 13.2172 5.01794 13.125 5.25 13.125H13.125C13.3571 13.125 13.5796 13.2172 13.7437 13.3813C13.9078 13.5454 14 13.7679 14 14ZM5.25 7.875H20.125C20.3571 7.875 20.5796 7.78281 20.7437 7.61872C20.9078 7.45462 21 7.23206 21 7C21 6.76794 20.9078 6.54538 20.7437 6.38128C20.5796 6.21719 20.3571 6.125 20.125 6.125H5.25C5.01794 6.125 4.79538 6.21719 4.63128 6.38128C4.46719 6.54538 4.375 6.76794 4.375 7C4.375 7.23206 4.46719 7.45462 4.63128 7.61872C4.79538 7.78281 5.01794 7.875 5.25 7.875ZM11.375 20.125H5.25C5.01794 20.125 4.79538 20.2172 4.63128 20.3813C4.46719 20.5454 4.375 20.7679 4.375 21C4.375 21.2321 4.46719 21.4546 4.63128 21.6187C4.79538 21.7828 5.01794 21.875 5.25 21.875H11.375C11.6071 21.875 11.8296 21.7828 11.9937 21.6187C12.1578 21.4546 12.25 21.2321 12.25 21C12.25 20.7679 12.1578 20.5454 11.9937 20.3813C11.8296 20.2172 11.6071 20.125 11.375 20.125ZM25.1191 17.7559C25.0378 17.6746 24.9413 17.61 24.8351 17.566C24.7288 17.522 24.615 17.4993 24.5 17.4993C24.385 17.4993 24.2711 17.522 24.1649 17.566C24.0587 17.61 23.9622 17.6746 23.8809 17.7559L21 20.638V12.25C21 12.0179 20.9078 11.7954 20.7437 11.6313C20.5796 11.4672 20.3571 11.375 20.125 11.375C19.8929 11.375 19.6704 11.4672 19.5063 11.6313C19.3422 11.7954 19.25 12.0179 19.25 12.25V20.638L16.3691 17.7559C16.2049 17.5918 15.9822 17.4995 15.75 17.4995C15.5178 17.4995 15.2951 17.5918 15.1309 17.7559C14.9668 17.9201 14.8745 18.1428 14.8745 18.375C14.8745 18.6072 14.9668 18.8299 15.1309 18.9941L19.5059 23.3691C19.5872 23.4504 19.6837 23.515 19.7899 23.559C19.8961 23.603 20.01 23.6257 20.125 23.6257C20.24 23.6257 20.3538 23.603 20.4601 23.559C20.5663 23.515 20.6628 23.4504 20.7441 23.3691L25.1191 18.9941C25.2004 18.9128 25.265 18.8163 25.309 18.7101C25.353 18.6038 25.3757 18.49 25.3757 18.375C25.3757 18.26 25.353 18.1461 25.309 18.0399C25.265 17.9337 25.2004 17.8372 25.1191 17.7559Z" fill="#343330"/>
</svg>
