<svg width="20" height="20" viewBox="0 0 20 20" fill="none" xmlns="http://www.w3.org/2000/svg">
<g clip-path="url(#clip0_147_716)">
<path d="M10 20C15.5228 20 20 15.5228 20 10C20 4.47715 15.5228 0 10 0C4.47715 0 0 4.47715 0 10C0 15.5228 4.47715 20 10 20Z" fill="#F0F0F0"/>
<path d="M2.92893 17.0711C-0.976309 13.1659 -0.976309 6.83423 2.92893 2.92896C2.92865 2.92938 8.69568 10 8.69568 10L2.92893 17.0711Z" fill="black"/>
<path d="M8.69585 10L1.32647 5.02008C1.098 5.41723 0.896514 5.83176 0.723389 6.26082L4.45421 10.0001L0.723506 13.7395C0.896475 14.1683 1.09776 14.5825 1.32608 14.9794L8.69585 10Z" fill="#FFDA44"/>
<path d="M19.9151 8.69568H8.69518L2.92861 2.92908C2.30721 3.55048 1.76732 4.25326 1.32607 5.02009L6.29635 10L1.32568 14.9793C1.76693 15.7463 2.30705 16.4494 2.92861 17.0709L8.69518 11.3044H19.9151C19.9707 10.8774 19.9998 10.4421 19.9998 10C19.9998 9.55794 19.9707 9.12263 19.9151 8.69568Z" fill="#6DA544"/>
<path d="M3.91162 17.9327C5.59791 19.2289 7.70873 20.0001 9.99998 20.0001C14.6203 20.0001 18.508 16.8664 19.6555 12.6088H9.23564L3.91162 17.9327Z" fill="#0052B4"/>
<path d="M19.6555 7.39129C18.508 3.13363 14.6203 0 9.99998 0C7.70873 0 5.59791 0.771133 3.91162 2.0673L9.23561 7.39129H19.6555Z" fill="#D80027"/>
</g>
<defs>
<clipPath id="clip0_147_716">
<rect width="20" height="20" fill="white"/>
</clipPath>
</defs>
</svg>
