<svg width="28" height="28" viewBox="0 0 28 28" fill="none" xmlns="http://www.w3.org/2000/svg">
<path opacity="0.2" d="M25.0534 11.899L19.7269 16.4927L21.3544 23.3604C21.3974 23.5369 21.3871 23.7221 21.3249 23.8928C21.2626 24.0635 21.1512 24.2118 21.0046 24.3192C20.8581 24.4265 20.683 24.488 20.5015 24.4959C20.32 24.5037 20.1403 24.4576 19.985 24.3633L14 20.6818L8.015 24.3622C7.85971 24.4565 7.67997 24.5026 7.49848 24.4948C7.31699 24.4869 7.14191 24.4254 6.99535 24.3181C6.8488 24.2108 6.73735 24.0624 6.67511 23.8917C6.61286 23.7211 6.6026 23.5358 6.64562 23.3593L8.27312 16.4916L2.94656 11.8979C2.81075 11.7786 2.71284 11.6222 2.66491 11.448C2.61698 11.2737 2.62113 11.0892 2.67685 10.9173C2.73257 10.7454 2.83742 10.5935 2.97845 10.4805C3.11948 10.3675 3.29053 10.2982 3.47047 10.2813L10.4606 9.71256L13.1534 3.19381C13.2221 3.02564 13.3393 2.88172 13.49 2.78041C13.6408 2.6791 13.8183 2.625 14 2.625C14.1816 2.625 14.3592 2.6791 14.51 2.78041C14.6607 2.88172 14.7779 3.02564 14.8466 3.19381L17.5394 9.71256L24.5295 10.2813C24.7097 10.298 24.881 10.3672 25.0223 10.4803C25.1636 10.5934 25.2686 10.7454 25.3243 10.9176C25.3801 11.0897 25.3841 11.2744 25.336 11.4489C25.2878 11.6233 25.1896 11.7798 25.0534 11.899Z" fill="black" fill-opacity="0.2"/>
<path d="M26.1603 10.6379C26.0509 10.3016 25.8444 10.0052 25.5669 9.78604C25.2893 9.56688 24.9531 9.43477 24.6006 9.40634L18.1475 8.88572L15.6559 2.86025C15.5212 2.53192 15.2919 2.25108 14.9971 2.05343C14.7023 1.85578 14.3554 1.75024 14.0005 1.75024C13.6456 1.75024 13.2988 1.85578 13.004 2.05343C12.7092 2.25108 12.4799 2.53192 12.3452 2.86025L9.85578 8.88462L3.39937 9.40634C3.04628 9.4362 2.70986 9.5696 2.43225 9.78982C2.15464 10.01 1.94819 10.3073 1.83877 10.6443C1.72934 10.9813 1.72181 11.3432 1.81712 11.6845C1.91242 12.0257 2.10632 12.3313 2.37453 12.5629L7.2964 16.8099L5.79687 23.1602C5.71301 23.5052 5.73354 23.8674 5.85587 24.2007C5.97819 24.534 6.19679 24.8234 6.48392 25.0323C6.77105 25.2411 7.11375 25.3599 7.46853 25.3737C7.82331 25.3874 8.17417 25.2954 8.47656 25.1093L14 21.7099L19.5267 25.1093C19.8292 25.2932 20.1794 25.3834 20.533 25.3687C20.8867 25.3539 21.2281 25.2348 21.5143 25.0265C21.8004 24.8181 22.0185 24.5297 22.1411 24.1976C22.2637 23.8655 22.2853 23.5046 22.2031 23.1602L20.6981 16.8088L25.62 12.5618C25.8904 12.3306 26.0861 12.0244 26.1822 11.6819C26.2784 11.3394 26.2708 10.9761 26.1603 10.6379ZM24.4825 11.2362L19.1559 15.8299C19.0345 15.9346 18.9441 16.0707 18.8947 16.2233C18.8453 16.3759 18.8388 16.5391 18.8759 16.6951L20.5034 23.5638C20.5076 23.5733 20.5081 23.584 20.5046 23.5938C20.5011 23.6036 20.4941 23.6116 20.4848 23.6163C20.4652 23.6317 20.4597 23.6284 20.4433 23.6163L14.4583 19.9359C14.3204 19.8511 14.1618 19.8063 14 19.8063C13.8382 19.8063 13.6796 19.8511 13.5417 19.9359L7.55672 23.6185C7.54031 23.6284 7.53594 23.6317 7.51515 23.6185C7.50592 23.6138 7.49885 23.6058 7.49539 23.596C7.49193 23.5862 7.49235 23.5755 7.49656 23.566L9.12406 16.6973C9.16115 16.5413 9.15465 16.378 9.10527 16.2255C9.05589 16.0729 8.96553 15.9368 8.84406 15.8321L3.5175 11.2384C3.50437 11.2274 3.49234 11.2176 3.50328 11.1837C3.51422 11.1498 3.52297 11.1542 3.53937 11.152L10.5306 10.5876C10.691 10.5738 10.8444 10.5161 10.9741 10.4208C11.1038 10.3255 11.2047 10.1962 11.2656 10.0473L13.9584 3.52744C13.9672 3.50884 13.9705 3.50009 13.9967 3.50009C14.023 3.50009 14.0262 3.50884 14.035 3.52744L16.7344 10.0473C16.7959 10.1963 16.8974 10.3254 17.0277 10.4203C17.158 10.5153 17.312 10.5724 17.4727 10.5854L24.4639 11.1498C24.4803 11.1498 24.4902 11.1498 24.5 11.1815C24.5098 11.2132 24.5 11.2252 24.4825 11.2362Z" fill="black" fill-opacity="0.2"/>
</svg>
