<svg width="20" height="20" viewBox="0 0 20 20" fill="none" xmlns="http://www.w3.org/2000/svg">
<g clip-path="url(#clip0_147_763)">
<path d="M10 20C15.5228 20 20 15.5228 20 10C20 4.47715 15.5228 0 10 0C4.47715 0 0 4.47715 0 10C0 15.5228 4.47715 20 10 20Z" fill="#FFDA44"/>
<path d="M2.92904 17.0711C3.34854 17.4906 3.79611 17.8647 4.26561 18.1941L18.1941 4.26552C17.8648 3.79603 17.4907 3.34845 17.0712 2.92896C16.6517 2.50947 16.2041 2.13541 15.7346 1.80603L1.80615 15.7346C2.13545 16.204 2.50959 16.6516 2.92904 17.0711Z" fill="black"/>
<path d="M2.92876 2.9289C-0.226002 6.08374 -0.831666 10.8217 1.11064 14.5851L14.5849 1.11081C10.8215 -0.831491 6.08357 -0.225788 2.92876 2.9289Z" fill="#6DA544"/>
<path d="M17.0709 17.0711C20.2257 13.9164 20.8313 9.17838 18.8891 5.41498L5.41479 18.8893C9.17811 20.8316 13.9161 20.2259 17.0709 17.0711Z" fill="#338AF3"/>
</g>
<defs>
<clipPath id="clip0_147_763">
<rect width="20" height="20" fill="white"/>
</clipPath>
</defs>
</svg>
