<svg width="32" height="32" viewBox="0 0 32 32" fill="none" xmlns="http://www.w3.org/2000/svg">
<rect x="0.25" y="0.25" width="31.5" height="31.5" rx="3.75" fill="url(#paint0_linear_147_821)" stroke="#E7DBE5" stroke-width="0.5"/>
<path d="M23.0187 12.1526C23.1813 12.1121 23.321 12.0087 23.4073 11.8651C23.4936 11.7215 23.5193 11.5495 23.4787 11.387L22.8676 8.93572C22.7865 8.61066 22.5797 8.33111 22.2925 8.15857C22.0054 7.98602 21.6614 7.93462 21.3364 8.01567L6.62871 11.6827C6.30365 11.7637 6.0241 11.9706 5.85156 12.2578C5.67902 12.5449 5.62762 12.8889 5.70866 13.2139L6.31983 15.6652C6.36036 15.8277 6.46378 15.9675 6.60736 16.0538C6.75094 16.14 6.92291 16.1657 7.08544 16.1252C7.57303 16.0036 8.08894 16.0808 8.51968 16.3396C8.95042 16.5984 9.26071 17.0177 9.38228 17.5053C9.50385 17.9929 9.42674 18.5088 9.16793 18.9395C8.90911 19.3703 8.48979 19.6806 8.0022 19.8021C7.83967 19.8427 7.6999 19.9461 7.61362 20.0897C7.52735 20.2332 7.50165 20.4052 7.54218 20.5677L8.15335 23.019C8.23439 23.3441 8.44125 23.6236 8.72841 23.7962C9.01557 23.9687 9.35951 24.0201 9.68457 23.9391L24.3922 20.272C24.7173 20.191 24.9968 19.9841 25.1694 19.697C25.3419 19.4098 25.3933 19.0659 25.3123 18.7408L24.7011 16.2895C24.6606 16.127 24.5571 15.9872 24.4136 15.901C24.27 15.8147 24.098 15.789 23.9355 15.8295C23.4479 15.9511 22.932 15.874 22.5012 15.6152C22.0705 15.3564 21.7602 14.937 21.6386 14.4494C21.5171 13.9618 21.5942 13.4459 21.853 13.0152C22.1118 12.5845 22.5311 12.2742 23.0187 12.1526ZM8.90533 20.8137C9.56292 20.5003 10.092 19.9693 10.4028 19.3105C10.7137 18.6517 10.7872 17.9057 10.611 17.1989C10.4348 16.4921 10.0196 15.868 9.43586 15.4323C8.85212 14.9965 8.13569 14.776 7.40796 14.8081L6.9343 12.9083L11.224 11.8388L13.6687 21.6439L9.37898 22.7134L8.90533 20.8137Z" fill="#CCC2DC" fill-opacity="0.16"/>
<path opacity="0.2" d="M20.828 15.3691C20.9001 15.8817 21.1476 16.3537 21.5285 16.7052C21.9095 17.0567 22.4005 17.2661 22.9185 17.298C23.0478 17.306 23.1705 17.3583 23.2657 17.446C23.3609 17.5337 23.4228 17.6515 23.441 17.7795L23.6839 19.5033C23.7047 19.6507 23.6659 19.8003 23.576 19.9192C23.4862 20.0381 23.3527 20.1165 23.2049 20.1372L14.2878 21.3871L12.8779 11.3822L21.795 10.1324C21.9428 10.1116 22.0928 10.1503 22.2121 10.2399C22.3313 10.3295 22.4099 10.4627 22.4307 10.6101L22.6736 12.3338C22.6915 12.4619 22.6645 12.5921 22.5973 12.7026C22.53 12.8131 22.4265 12.8971 22.3044 12.9403C21.8153 13.1134 21.4012 13.4497 21.1322 13.8923C20.8631 14.3349 20.7557 14.8566 20.828 15.3691Z" fill="#ECECEC"/>
<path d="M22.4916 13.4695C22.7361 13.3831 22.9433 13.2151 23.078 12.9939C23.2126 12.7728 23.2665 12.512 23.2306 12.2557L22.9876 10.5319C22.9461 10.2371 22.7888 9.97082 22.5504 9.79164C22.312 9.61246 22.012 9.53508 21.7164 9.57652L8.34071 11.4513C8.04509 11.4927 7.77809 11.6496 7.59843 11.8874C7.41877 12.1252 7.34118 12.4244 7.38273 12.7192L7.62564 14.443C7.66189 14.6992 7.78578 14.9351 7.97636 15.1107C8.16694 15.2863 8.41249 15.3908 8.67146 15.4066C9.05891 15.4317 9.42584 15.5892 9.71045 15.8526C9.99507 16.116 10.18 16.4691 10.234 16.8526C10.288 17.236 10.2079 17.6263 10.0071 17.9578C9.80632 18.2892 9.49713 18.5415 9.13163 18.6721C8.8866 18.7586 8.67915 18.9271 8.54451 19.1488C8.40988 19.3706 8.35636 19.632 8.39304 19.8887L8.63594 21.6124C8.67749 21.9073 8.83477 22.1736 9.07318 22.3527C9.3116 22.5319 9.61161 22.6093 9.90723 22.5679L23.2829 20.6931C23.5785 20.6516 23.8455 20.4948 24.0252 20.257C24.2048 20.0192 24.2824 19.72 24.2409 19.4252L23.998 17.7014C23.9617 17.4452 23.8378 17.2093 23.6472 17.0337C23.4567 16.8581 23.2111 16.7536 22.9521 16.7378C22.5647 16.7127 22.1977 16.5552 21.9131 16.2918C21.6285 16.0284 21.4436 15.6752 21.3896 15.2918C21.3356 14.9083 21.4157 14.518 21.6165 14.1866C21.8173 13.8552 22.1265 13.6029 22.492 13.4723L22.4916 13.4695ZM9.50777 19.7331C10.1193 19.517 10.6372 19.0967 10.9737 18.5435C11.3102 17.9903 11.4447 17.3381 11.3544 16.6973C11.2641 16.0565 10.9545 15.4666 10.4782 15.0273C10.0018 14.588 9.38785 14.3264 8.74027 14.2867L8.49737 12.563L12.3986 12.0162C12.3986 12.0162 12.7805 14.7263 13.0252 16.4628C13.2699 18.1993 13.6518 20.9094 13.6518 20.9094L9.75058 21.4562L9.50777 19.7331ZM22.8834 17.8583L23.1262 19.5814L14.7664 20.7532L14.1398 16.3065L13.5132 11.8599L21.873 10.6882L22.1158 12.4112C21.5043 12.6274 20.9864 13.0476 20.6499 13.6009C20.3134 14.1541 20.1789 14.8063 20.2692 15.4471C20.3595 16.0878 20.669 16.6778 21.1454 17.1171C21.6218 17.5564 22.2357 17.818 22.8833 17.8576L22.8834 17.8583Z" fill="#E7DBE5"/>
<defs>
<linearGradient id="paint0_linear_147_821" x1="16" y1="0" x2="16" y2="32" gradientUnits="userSpaceOnUse">
<stop stop-color="#FFF1FD"/>
<stop offset="1" stop-color="#FAFAFA"/>
</linearGradient>
</defs>
</svg>
