<svg width="20" height="20" viewBox="0 0 20 20" fill="none" xmlns="http://www.w3.org/2000/svg">
<g clip-path="url(#clip0_147_770)">
<path d="M17.4529 16.6667C19.0366 14.8975 20 12.5615 20 10.0001C20 7.43865 19.0365 5.10259 17.4528 3.33337L10 2.60876L2.54719 3.33337C0.963477 5.10259 0 7.43865 0 10.0001C0 12.5615 0.963438 14.8975 2.54715 16.6667L10 17.3913L17.4529 16.6667Z" fill="#FFDA44"/>
<path d="M2.54712 3.33332H17.4528C15.6217 1.28773 12.9614 0 9.99993 0C7.03849 0 4.37813 1.28773 2.54712 3.33332Z" fill="black"/>
<path d="M0 10L10 10.8696L20 10C20 8.83109 19.7988 7.70929 19.4302 6.66663H0.569844C0.201211 7.70929 0 8.83109 0 10Z" fill="#D80027"/>
<path d="M0.569844 13.3333H19.4302C19.7988 12.2907 20 11.1689 20 10H0C0 11.1689 0.201211 12.2907 0.569844 13.3333Z" fill="black"/>
<path d="M17.4528 16.6666H2.54712C4.37813 18.7123 7.03849 20 9.99997 20C12.9615 20 15.6218 18.7123 17.4528 16.6666Z" fill="#D80027"/>
<path d="M13.3367 10C13.3367 11.8431 11.8429 13.337 9.99979 13.337C8.15671 13.337 6.66284 11.8431 6.66284 10C6.66284 8.15695 8.15671 6.66309 9.99979 6.66309C11.8429 6.66309 13.3367 8.15695 13.3367 10Z" fill="#F0F0F0"/>
<path d="M11.2224 10.1702L9.99992 9.64044C9.99992 9.64044 10.2859 8.69111 10.3012 8.62614C10.3123 8.57868 10.3182 8.52919 10.3182 8.47833C10.3182 8.29822 10.2452 8.13517 10.1272 8.0172L10.4346 7.70978C10.2379 7.5131 9.96617 7.39142 9.66601 7.39142C9.36586 7.39142 9.0941 7.51306 8.89742 7.70978L9.20484 8.0172C9.08679 8.13521 9.01383 8.29825 9.01383 8.47833C9.01383 8.54419 9.02379 8.60767 9.04195 8.66763L8.5791 9.13044H9.42035C9.42035 9.13044 9.07254 9.65286 8.88265 10.0819C8.69277 10.5109 8.88527 11.0346 9.3241 11.2297L9.57785 11.3424L9.99992 11.7392V12.1739L9.56515 12.6087H10.4347V11.7391L10.8315 11.3424H11.6521C11.656 11.3342 11.6602 11.3262 11.6639 11.3179C11.8589 10.8791 11.6612 10.3652 11.2224 10.1702Z" fill="black"/>
</g>
<defs>
<clipPath id="clip0_147_770">
<rect width="20" height="20" fill="white"/>
</clipPath>
</defs>
</svg>
