<svg width="20" height="20" viewBox="0 0 20 20" fill="none" xmlns="http://www.w3.org/2000/svg">
<g clip-path="url(#clip0_147_732)">
<path d="M10 20C15.5228 20 20 15.5228 20 10C20 4.47715 15.5228 0 10 0C4.47715 0 0 4.47715 0 10C0 15.5228 4.47715 20 10 20Z" fill="#F0F0F0"/>
<path d="M2.06742 3.91187C1.28191 4.93386 0.689609 6.11179 0.344727 7.39144H5.54699L2.06742 3.91187Z" fill="#0052B4"/>
<path d="M19.6558 7.39146C19.3109 6.11185 18.7186 4.93392 17.9331 3.91193L14.4536 7.39146H19.6558Z" fill="#0052B4"/>
<path d="M0.344727 12.6088C0.689648 13.8884 1.28195 15.0664 2.06742 16.0883L5.54688 12.6088H0.344727Z" fill="#0052B4"/>
<path d="M16.0887 2.06728C15.0667 1.28177 13.8888 0.689465 12.6091 0.344543V5.54677L16.0887 2.06728Z" fill="#0052B4"/>
<path d="M3.91235 17.9328C4.93435 18.7183 6.11228 19.3106 7.39188 19.6556V14.4534L3.91235 17.9328Z" fill="#0052B4"/>
<path d="M7.39185 0.344543C6.11224 0.689465 4.93431 1.28177 3.91235 2.06724L7.39185 5.54673V0.344543Z" fill="#0052B4"/>
<path d="M12.6091 19.6556C13.8887 19.3106 15.0667 18.7183 16.0886 17.9329L12.6091 14.4534V19.6556Z" fill="#0052B4"/>
<path d="M14.4536 12.6088L17.9331 16.0884C18.7186 15.0664 19.3109 13.8884 19.6558 12.6088H14.4536Z" fill="#0052B4"/>
<path d="M19.9154 8.69566H11.3044H11.3044V0.0846484C10.8774 0.0290625 10.4421 0 10 0C9.55785 0 9.12262 0.0290625 8.69566 0.0846484V8.69559V8.69563H0.0846484C0.0290625 9.12262 0 9.55793 0 10C0 10.4421 0.0290625 10.8774 0.0846484 11.3043H8.69559H8.69563V19.9154C9.12262 19.9709 9.55785 20 10 20C10.4421 20 10.8774 19.971 11.3043 19.9154V11.3044V11.3044H19.9154C19.9709 10.8774 20 10.4421 20 10C20 9.55793 19.9709 9.12262 19.9154 8.69566Z" fill="#D80027"/>
<path d="M12.6084 12.6088L17.0707 17.0711C17.276 16.866 17.4718 16.6515 17.6586 16.4292L13.8382 12.6088H12.6084V12.6088Z" fill="#D80027"/>
<path d="M7.39133 12.6088H7.39125L2.92896 17.0711C3.13411 17.2764 3.3486 17.4721 3.57095 17.6589L7.39133 13.8385V12.6088Z" fill="#D80027"/>
<path d="M7.39122 7.39142V7.39135L2.92888 2.92896C2.72364 3.13411 2.52786 3.3486 2.34106 3.57095L6.16149 7.39138H7.39122V7.39142Z" fill="#D80027"/>
<path d="M12.6084 7.39138L17.0708 2.92896C16.8656 2.72373 16.6511 2.52794 16.4288 2.34119L12.6084 6.16162V7.39138Z" fill="#D80027"/>
</g>
<defs>
<clipPath id="clip0_147_732">
<rect width="20" height="20" fill="white"/>
</clipPath>
</defs>
</svg>
