<svg width="29" height="28" viewBox="0 0 29 28" fill="none" xmlns="http://www.w3.org/2000/svg">
<path opacity="0.2" d="M18.375 10.9375C18.375 12.2354 17.9901 13.5042 17.269 14.5834C16.5479 15.6626 15.523 16.5038 14.3239 17.0005C13.1247 17.4972 11.8052 17.6271 10.5322 17.3739C9.25922 17.1207 8.0899 16.4957 7.17211 15.5779C6.25433 14.6601 5.62932 13.4908 5.3761 12.2178C5.12288 10.9448 5.25284 9.62528 5.74954 8.42614C6.24624 7.227 7.08738 6.20208 8.16657 5.48098C9.24577 4.75988 10.5146 4.375 11.8125 4.375C13.553 4.375 15.2222 5.0664 16.4529 6.29711C17.6836 7.52782 18.375 9.19702 18.375 10.9375Z" fill="black" fill-opacity="0.2"/>
<path d="M15.75 17.2462C17.1217 16.3919 18.1778 15.1141 18.7585 13.6061C19.3393 12.0981 19.4131 10.442 18.9689 8.88829C18.5246 7.3346 17.5864 5.96788 16.2961 4.99489C15.0059 4.02191 13.4339 3.49561 11.818 3.49561C10.202 3.49561 8.63001 4.02191 7.3398 4.99489C6.04959 5.96788 5.11137 7.3346 4.66709 8.88829C4.2228 10.442 4.29663 12.0981 4.8774 13.6061C5.45816 15.1141 6.51427 16.3919 7.88594 17.2462C5.62734 17.9856 3.59516 19.367 1.96109 21.3117C1.88453 21.3992 1.82619 21.5012 1.78949 21.6115C1.75278 21.7219 1.73844 21.8385 1.74732 21.9544C1.75619 22.0704 1.78809 22.1834 1.84116 22.2869C1.89423 22.3904 1.96739 22.4823 2.05638 22.5572C2.14537 22.6321 2.2484 22.6885 2.35944 22.7231C2.47048 22.7577 2.5873 22.7698 2.70308 22.7587C2.81885 22.7476 2.93126 22.7136 3.03373 22.6586C3.1362 22.6036 3.22666 22.5287 3.29984 22.4383C5.49609 19.8176 8.52141 18.375 11.8125 18.375C15.1036 18.375 18.1289 19.8176 20.3295 22.4383C20.4789 22.6161 20.6928 22.7273 20.9242 22.7474C21.1556 22.7675 21.3855 22.6948 21.5633 22.5454C21.7411 22.3961 21.8523 22.1821 21.8724 21.9508C21.8925 21.7194 21.8199 21.4895 21.6705 21.3117C20.0353 19.367 18.0031 17.9856 15.75 17.2462ZM6.125 10.9375C6.125 9.8126 6.45857 8.71298 7.08352 7.77767C7.70847 6.84237 8.59674 6.11339 9.63599 5.68291C10.6752 5.25244 11.8188 5.13981 12.9221 5.35926C14.0253 5.57872 15.0388 6.1204 15.8342 6.91581C16.6296 7.71122 17.1713 8.72464 17.3907 9.8279C17.6102 10.9312 17.4975 12.0747 17.0671 13.114C16.6366 14.1532 15.9076 15.0415 14.9723 15.6665C14.037 16.2914 12.9374 16.625 11.8125 16.625C10.3046 16.6232 8.85899 16.0235 7.79275 14.9572C6.72651 13.891 6.12674 12.4454 6.125 10.9375ZM27.5898 15.6483L27.0802 15.354C27.14 15.0375 27.14 14.7125 27.0802 14.3959L27.5898 14.1017C27.6894 14.0442 27.7766 13.9677 27.8466 13.8766C27.9166 13.7854 27.9679 13.6813 27.9977 13.5703C28.0274 13.4593 28.035 13.3435 28.02 13.2296C28.0051 13.1156 27.9678 13.0058 27.9103 12.9062C27.8529 12.8067 27.7764 12.7194 27.6852 12.6495C27.594 12.5795 27.49 12.5282 27.379 12.4984C27.2679 12.4686 27.1522 12.461 27.0382 12.476C26.9243 12.491 26.8144 12.5283 26.7148 12.5858L26.2041 12.8811C25.9596 12.6714 25.6786 12.5086 25.375 12.4009V11.8125C25.375 11.5804 25.2828 11.3579 25.1187 11.1938C24.9546 11.0297 24.7321 10.9375 24.5 10.9375C24.2679 10.9375 24.0454 11.0297 23.8813 11.1938C23.7172 11.3579 23.625 11.5804 23.625 11.8125V12.4009C23.3214 12.5086 23.0404 12.6714 22.7959 12.8811L22.2852 12.5858C22.1856 12.5283 22.0757 12.491 21.9618 12.476C21.8478 12.461 21.7321 12.4686 21.6211 12.4984C21.51 12.5282 21.406 12.5795 21.3148 12.6495C21.2236 12.7194 21.1471 12.8067 21.0897 12.9062C21.0322 13.0058 20.995 13.1156 20.98 13.2296C20.965 13.3435 20.9726 13.4593 21.0023 13.5703C21.0321 13.6813 21.0834 13.7854 21.1534 13.8766C21.2234 13.9677 21.3106 14.0442 21.4102 14.1017L21.9198 14.3959C21.8601 14.7125 21.8601 15.0375 21.9198 15.354L21.4102 15.6483C21.3106 15.7057 21.2234 15.7822 21.1534 15.8734C21.0834 15.9646 21.0321 16.0686 21.0023 16.1796C20.9726 16.2906 20.965 16.4064 20.98 16.5204C20.995 16.6343 21.0322 16.7442 21.0897 16.8437C21.1471 16.9433 21.2236 17.0305 21.3148 17.1005C21.406 17.1705 21.51 17.2218 21.6211 17.2516C21.7321 17.2813 21.8478 17.2889 21.9618 17.2739C22.0757 17.2589 22.1856 17.2217 22.2852 17.1642L22.7959 16.8689C23.0404 17.0786 23.3214 17.2414 23.625 17.349V17.9375C23.625 18.1695 23.7172 18.3921 23.8813 18.5562C24.0454 18.7203 24.2679 18.8125 24.5 18.8125C24.7321 18.8125 24.9546 18.7203 25.1187 18.5562C25.2828 18.3921 25.375 18.1695 25.375 17.9375V17.349C25.6786 17.2414 25.9596 17.0786 26.2041 16.8689L26.7148 17.1642C26.8477 17.2413 26.9987 17.2817 27.1523 17.2812C27.345 17.2813 27.5323 17.2178 27.6852 17.1005C27.8381 16.9832 27.948 16.8188 27.9979 16.6327C28.0477 16.4466 28.0348 16.2492 27.961 16.0712C27.8872 15.8932 27.7568 15.7445 27.5898 15.6483ZM24.5 15.75C24.3269 15.75 24.1578 15.6987 24.0139 15.6025C23.87 15.5064 23.7578 15.3697 23.6916 15.2098C23.6254 15.0499 23.6081 14.874 23.6418 14.7043C23.6756 14.5345 23.7589 14.3786 23.8813 14.2563C24.0037 14.1339 24.1596 14.0506 24.3293 14.0168C24.499 13.983 24.675 14.0004 24.8349 14.0666C24.9947 14.1328 25.1314 14.245 25.2275 14.3889C25.3237 14.5327 25.375 14.7019 25.375 14.875C25.375 15.107 25.2828 15.3296 25.1187 15.4937C24.9546 15.6578 24.7321 15.75 24.5 15.75Z" fill="black" fill-opacity="0.2"/>
</svg>
