<svg width="33" height="32" viewBox="0 0 33 32" fill="none" xmlns="http://www.w3.org/2000/svg">
<path opacity="0.2" d="M20.5 14C20.5 14.7911 20.2654 15.5645 19.8259 16.2223C19.3864 16.8801 18.7616 17.3928 18.0307 17.6955C17.2998 17.9983 16.4956 18.0775 15.7196 17.9231C14.9437 17.7688 14.231 17.3878 13.6716 16.8284C13.1122 16.269 12.7312 15.5563 12.5769 14.7804C12.4225 14.0044 12.5017 13.2002 12.8045 12.4693C13.1072 11.7384 13.6199 11.1136 14.2777 10.6741C14.9355 10.2346 15.7089 10 16.5 10C17.5609 10 18.5783 10.4214 19.3284 11.1716C20.0786 11.9217 20.5 12.9391 20.5 14Z" fill="#5A0B4D"/>
<path d="M28.5 5V9.5C28.5 9.76522 28.3946 10.0196 28.2071 10.2071C28.0196 10.3946 27.7652 10.5 27.5 10.5C27.2348 10.5 26.9804 10.3946 26.7929 10.2071C26.6054 10.0196 26.5 9.76522 26.5 9.5V6H23C22.7348 6 22.4804 5.89464 22.2929 5.70711C22.1054 5.51957 22 5.26522 22 5C22 4.73478 22.1054 4.48043 22.2929 4.29289C22.4804 4.10536 22.7348 4 23 4H27.5C27.7652 4 28.0196 4.10536 28.2071 4.29289C28.3946 4.48043 28.5 4.73478 28.5 5ZM27.5 21.5C27.2348 21.5 26.9804 21.6054 26.7929 21.7929C26.6054 21.9804 26.5 22.2348 26.5 22.5V26H23C22.7348 26 22.4804 26.1054 22.2929 26.2929C22.1054 26.4804 22 26.7348 22 27C22 27.2652 22.1054 27.5196 22.2929 27.7071C22.4804 27.8946 22.7348 28 23 28H27.5C27.7652 28 28.0196 27.8946 28.2071 27.7071C28.3946 27.5196 28.5 27.2652 28.5 27V22.5C28.5 22.2348 28.3946 21.9804 28.2071 21.7929C28.0196 21.6054 27.7652 21.5 27.5 21.5ZM10 26H6.5V22.5C6.5 22.2348 6.39464 21.9804 6.20711 21.7929C6.01957 21.6054 5.76522 21.5 5.5 21.5C5.23478 21.5 4.98043 21.6054 4.79289 21.7929C4.60536 21.9804 4.5 22.2348 4.5 22.5V27C4.5 27.2652 4.60536 27.5196 4.79289 27.7071C4.98043 27.8946 5.23478 28 5.5 28H10C10.2652 28 10.5196 27.8946 10.7071 27.7071C10.8946 27.5196 11 27.2652 11 27C11 26.7348 10.8946 26.4804 10.7071 26.2929C10.5196 26.1054 10.2652 26 10 26ZM5.5 10.5C5.76522 10.5 6.01957 10.3946 6.20711 10.2071C6.39464 10.0196 6.5 9.76522 6.5 9.5V6H10C10.2652 6 10.5196 5.89464 10.7071 5.70711C10.8946 5.51957 11 5.26522 11 5C11 4.73478 10.8946 4.48043 10.7071 4.29289C10.5196 4.10536 10.2652 4 10 4H5.5C5.23478 4 4.98043 4.10536 4.79289 4.29289C4.60536 4.48043 4.5 4.73478 4.5 5V9.5C4.5 9.76522 4.60536 10.0196 4.79289 10.2071C4.98043 10.3946 5.23478 10.5 5.5 10.5ZM22.5 22C22.3447 22.0003 22.1914 21.9645 22.0523 21.8953C21.9132 21.8261 21.7922 21.7254 21.6987 21.6012C21.0933 20.794 20.3082 20.1388 19.4056 19.6875C18.5031 19.2362 17.5078 19.0012 16.4987 19.0012C15.4897 19.0012 14.4944 19.2362 13.5919 19.6875C12.6893 20.1388 11.9042 20.794 11.2987 21.6012C11.1393 21.8134 10.9021 21.9536 10.6393 21.9908C10.3765 22.0281 10.1097 21.9595 9.8975 21.8C9.68533 21.6405 9.54519 21.4033 9.50792 21.1405C9.47064 20.8778 9.53929 20.6109 9.69875 20.3988C10.585 19.2121 11.7661 18.2779 13.125 17.6887C12.3804 17.0089 11.8587 16.1199 11.6284 15.1382C11.3981 14.1566 11.47 13.1283 11.8346 12.1883C12.1991 11.2482 12.8394 10.4404 13.6713 9.87072C14.5033 9.30106 15.488 8.99623 16.4963 8.99623C17.5045 8.99623 18.4892 9.30106 19.3212 9.87072C20.1531 10.4404 20.7934 11.2482 21.1579 12.1883C21.5225 13.1283 21.5944 14.1566 21.3641 15.1382C21.1338 16.1199 20.6121 17.0089 19.8675 17.6887C21.2273 18.2775 22.4093 19.2118 23.2962 20.3988C23.4078 20.5471 23.476 20.7235 23.493 20.9083C23.51 21.0932 23.4752 21.2791 23.3926 21.4453C23.31 21.6115 23.1827 21.7514 23.025 21.8493C22.8674 21.9473 22.6856 21.9995 22.5 22ZM16.5 17C17.0933 17 17.6734 16.8241 18.1667 16.4944C18.6601 16.1648 19.0446 15.6962 19.2716 15.1481C19.4987 14.5999 19.5581 13.9967 19.4424 13.4147C19.3266 12.8328 19.0409 12.2982 18.6213 11.8787C18.2018 11.4591 17.6672 11.1734 17.0853 11.0576C16.5033 10.9419 15.9001 11.0013 15.3519 11.2284C14.8038 11.4554 14.3352 11.8399 14.0056 12.3333C13.6759 12.8266 13.5 13.4067 13.5 14C13.5 14.7956 13.8161 15.5587 14.3787 16.1213C14.9413 16.6839 15.7044 17 16.5 17Z" fill="#5A0B4D"/>
</svg>
