<svg width="16" height="16" viewBox="0 0 16 16" fill="none" xmlns="http://www.w3.org/2000/svg">
<path d="M9.5 4.99988C9.5 4.80097 9.57902 4.6102 9.71967 4.46955C9.86033 4.3289 10.0511 4.24988 10.25 4.24988H15.25C15.4489 4.24988 15.6397 4.3289 15.7803 4.46955C15.921 4.6102 16 4.80097 16 4.99988C16 5.19879 15.921 5.38956 15.7803 5.53021C15.6397 5.67086 15.4489 5.74988 15.25 5.74988H10.25C10.0511 5.74988 9.86033 5.67086 9.71967 5.53021C9.57902 5.38956 9.5 5.19879 9.5 4.99988ZM15.25 7.24988H10.25C10.0511 7.24988 9.86033 7.3289 9.71967 7.46955C9.57902 7.6102 9.5 7.80097 9.5 7.99988C9.5 8.19879 9.57902 8.38956 9.71967 8.53021C9.86033 8.67086 10.0511 8.74988 10.25 8.74988H15.25C15.4489 8.74988 15.6397 8.67086 15.7803 8.53021C15.921 8.38956 16 8.19879 16 7.99988C16 7.80097 15.921 7.6102 15.7803 7.46955C15.6397 7.3289 15.4489 7.24988 15.25 7.24988ZM15.25 10.2499H11.75C11.5511 10.2499 11.3603 10.3289 11.2197 10.4696C11.079 10.6102 11 10.801 11 10.9999C11 11.1988 11.079 11.3896 11.2197 11.5302C11.3603 11.6709 11.5511 11.7499 11.75 11.7499H15.25C15.4489 11.7499 15.6397 11.6709 15.7803 11.5302C15.921 11.3896 16 11.1988 16 10.9999C16 10.801 15.921 10.6102 15.7803 10.4696C15.6397 10.3289 15.4489 10.2499 15.25 10.2499ZM9.72625 11.8124C9.75088 11.9078 9.75647 12.007 9.74272 12.1046C9.72897 12.2021 9.69615 12.296 9.64612 12.3808C9.59609 12.4657 9.52984 12.5398 9.45115 12.5991C9.37246 12.6583 9.28288 12.7015 9.1875 12.7261C9.09213 12.7508 8.99284 12.7563 8.89531 12.7426C8.79777 12.7289 8.7039 12.696 8.61905 12.646C8.5342 12.596 8.46003 12.5297 8.40079 12.451C8.34154 12.3723 8.29838 12.2828 8.27375 12.1874C7.91625 10.798 6.50875 9.74988 5 9.74988C3.49125 9.74988 2.08375 10.7974 1.72625 12.1874C1.70163 12.2828 1.65846 12.3723 1.59922 12.451C1.53997 12.5297 1.46581 12.596 1.38096 12.646C1.29611 12.696 1.20223 12.7289 1.1047 12.7426C1.00716 12.7563 0.907875 12.7508 0.812503 12.7261C0.71713 12.7015 0.627541 12.6583 0.548851 12.5991C0.470161 12.5398 0.403911 12.4657 0.353884 12.3808C0.303856 12.296 0.271031 12.2021 0.257282 12.1046C0.243533 12.007 0.24913 11.9078 0.273753 11.8124C0.610003 10.5061 1.52938 9.42738 2.71813 8.81238C2.25886 8.35977 1.94461 7.78078 1.81535 7.14905C1.68609 6.51733 1.74767 5.86144 1.99225 5.26481C2.23683 4.66819 2.65336 4.1578 3.18884 3.79858C3.72433 3.43937 4.35457 3.24756 4.99938 3.24756C5.64419 3.24756 6.27443 3.43937 6.80991 3.79858C7.3454 4.1578 7.76193 4.66819 8.00651 5.26481C8.25109 5.86144 8.31267 6.51733 8.18341 7.14905C8.05415 7.78078 7.7399 8.35977 7.28063 8.81238C8.47063 9.428 9.39 10.5068 9.72625 11.8124ZM5 8.24988C5.34612 8.24988 5.68446 8.14724 5.97225 7.95495C6.26004 7.76266 6.48434 7.48935 6.61679 7.16958C6.74925 6.84981 6.7839 6.49794 6.71638 6.15847C6.64885 5.81901 6.48218 5.50719 6.23744 5.26244C5.9927 5.0177 5.68088 4.85103 5.34141 4.78351C5.00194 4.71598 4.65008 4.75064 4.33031 4.88309C4.01054 5.01554 3.73722 5.23985 3.54493 5.52763C3.35264 5.81542 3.25 6.15376 3.25 6.49988C3.25 6.72969 3.29527 6.95726 3.38321 7.16958C3.47116 7.3819 3.60006 7.57481 3.76257 7.73732C4.09075 8.06551 4.53587 8.24988 5 8.24988Z" fill="#BFBFC1"/>
</svg>
