<svg width="28" height="28" viewBox="0 0 28 28" fill="none" xmlns="http://www.w3.org/2000/svg">
<path opacity="0.2" d="M26.0531 9.59121L14.6781 23.3101C14.596 23.4088 14.4932 23.4882 14.3769 23.5427C14.2607 23.5973 14.1339 23.6255 14.0055 23.6255C13.8771 23.6255 13.7503 23.5973 13.634 23.5427C13.5178 23.4882 13.4149 23.4088 13.3328 23.3101L1.94687 9.59121C1.87305 9.50246 1.81803 9.39963 1.78515 9.28896C1.75228 9.1783 1.74224 9.06211 1.75564 8.94744C1.76904 8.83278 1.8056 8.72203 1.8631 8.62193C1.92061 8.52183 1.99785 8.43445 2.09015 8.36512C5.5208 5.77577 9.70185 4.375 14 4.375C18.2981 4.375 22.4792 5.77577 25.9098 8.36512C26.0021 8.43445 26.0794 8.52183 26.1369 8.62193C26.1944 8.72203 26.231 8.83278 26.2444 8.94744C26.2578 9.06211 26.2477 9.1783 26.2148 9.28896C26.182 9.39963 26.1269 9.50246 26.0531 9.59121Z" fill="black" fill-opacity="0.2"/>
<path d="M5.89753 3.78651C5.82069 3.6999 5.72742 3.62939 5.62313 3.57908C5.51884 3.52878 5.4056 3.49967 5.28998 3.49345C5.17436 3.48723 5.05865 3.50402 4.94956 3.54285C4.84048 3.58167 4.74018 3.64177 4.65449 3.71964C4.5688 3.79751 4.49942 3.89162 4.45037 3.99651C4.40132 4.10139 4.37357 4.21497 4.36873 4.33066C4.3639 4.44635 4.38208 4.56185 4.42221 4.67046C4.46234 4.77907 4.52363 4.87864 4.60253 4.96339L5.10018 5.51026C3.85111 6.1082 2.66566 6.83083 1.5619 7.66714C1.37582 7.80883 1.22017 7.98654 1.10422 8.18967C0.988284 8.3928 0.914428 8.6172 0.887059 8.84948C0.85955 9.08119 0.879707 9.31608 0.94629 9.53972C1.01287 9.76336 1.12448 9.97102 1.27425 10.15L12.6492 23.8689C12.8137 24.0674 13.0201 24.2271 13.2537 24.3362C13.4873 24.4453 13.7422 24.5013 14 24.5C14.2571 24.5006 14.5112 24.4444 14.7439 24.3352C14.9767 24.2261 15.1825 24.0669 15.3464 23.8689L18.4199 20.1632L22.1025 24.2101C22.1794 24.2967 22.2726 24.3672 22.3769 24.4175C22.4812 24.4678 22.5945 24.4969 22.7101 24.5032C22.8257 24.5094 22.9414 24.4926 23.0505 24.4538C23.1596 24.4149 23.2599 24.3549 23.3456 24.277C23.4313 24.1991 23.5006 24.105 23.5497 24.0001C23.5987 23.8952 23.6265 23.7816 23.6313 23.666C23.6362 23.5503 23.618 23.4348 23.5778 23.3262C23.5377 23.2175 23.4764 23.118 23.3975 23.0332L5.89753 3.78651ZM14 22.75L2.63487 9.04964C3.78029 8.18307 5.02144 7.45093 6.33393 6.86761L17.231 18.8551L14 22.75ZM26.7258 10.15L21.3205 16.6665C21.2472 16.755 21.1571 16.8282 21.0555 16.8818C20.9539 16.9355 20.8428 16.9687 20.7283 16.9794C20.4973 17.001 20.2671 16.93 20.0884 16.7819C19.9097 16.6338 19.7972 16.4208 19.7755 16.1897C19.7539 15.9587 19.8249 15.7285 19.973 15.5498L25.3652 9.04964C22.097 6.56911 18.1029 5.23378 14 5.24995C12.8115 5.2492 11.6255 5.35904 10.4574 5.57808C10.3445 5.59962 10.2284 5.59872 10.1159 5.57542C10.0033 5.55212 9.89649 5.50688 9.80143 5.44229C9.70636 5.37769 9.62495 5.29501 9.56185 5.19895C9.49874 5.10289 9.45517 4.99535 9.43362 4.88245C9.41208 4.76956 9.41298 4.65352 9.43628 4.54097C9.45958 4.42843 9.50481 4.32157 9.56941 4.22651C9.634 4.13144 9.71669 4.05003 9.81275 3.98693C9.9088 3.92382 10.0164 3.88025 10.1292 3.8587C11.4055 3.61883 12.7014 3.49872 14 3.49995C18.4916 3.48306 22.8634 4.94775 26.4382 7.66714C26.6242 7.80883 26.7799 7.98654 26.8958 8.18967C27.0118 8.3928 27.0856 8.6172 27.113 8.84948C27.1405 9.08119 27.1204 9.31608 27.0538 9.53972C26.9872 9.76336 26.8756 9.97102 26.7258 10.15Z" fill="black" fill-opacity="0.2"/>
</svg>
