<svg width="28" height="28" viewBox="0 0 28 28" fill="none" xmlns="http://www.w3.org/2000/svg">
<path opacity="0.2" d="M26.0531 9.59121L14.6781 23.3101C14.596 23.4088 14.4932 23.4882 14.3769 23.5427C14.2607 23.5973 14.1339 23.6255 14.0055 23.6255C13.8771 23.6255 13.7503 23.5973 13.634 23.5427C13.5178 23.4882 13.4149 23.4088 13.3328 23.3101L1.94687 9.59121C1.87305 9.50246 1.81803 9.39963 1.78515 9.28896C1.75228 9.1783 1.74224 9.06211 1.75564 8.94744C1.76904 8.83278 1.8056 8.72203 1.8631 8.62193C1.92061 8.52183 1.99785 8.43445 2.09015 8.36512C5.5208 5.77577 9.70185 4.375 14 4.375C18.2981 4.375 22.4792 5.77577 25.9098 8.36512C26.0021 8.43445 26.0794 8.52183 26.1369 8.62193C26.1944 8.72203 26.231 8.83278 26.2444 8.94744C26.2578 9.06211 26.2477 9.1783 26.2148 9.28896C26.182 9.39963 26.1269 9.50246 26.0531 9.59121Z" fill="#5A0B4D"/>
<path d="M27.113 8.84968C27.0856 8.61739 27.0118 8.393 26.8958 8.18987C26.7799 7.98673 26.6242 7.80903 26.4382 7.66733C22.8634 4.94794 18.4916 3.48325 14 3.50014C9.50848 3.48325 5.1367 4.94794 1.5619 7.66733C1.37582 7.80903 1.22017 7.98673 1.10422 8.18987C0.988284 8.393 0.914428 8.61739 0.887059 8.84968C0.85955 9.08139 0.879707 9.31628 0.94629 9.53991C1.01287 9.76355 1.12448 9.97121 1.27425 10.1501L12.6492 23.8691C12.8137 24.0676 13.0201 24.2272 13.2537 24.3364C13.4873 24.4455 13.7422 24.5014 14 24.5001C14.2571 24.5008 14.5112 24.4446 14.7439 24.3354C14.9767 24.2263 15.1825 24.0671 15.3464 23.8691L26.7214 10.1501C26.872 9.97156 26.9844 9.76406 27.0517 9.54041C27.1191 9.31676 27.1399 9.08169 27.113 8.84968ZM14 22.7501L2.63487 9.04983C5.90306 6.5693 9.89712 5.23398 14 5.25014C18.1029 5.23398 22.097 6.5693 25.3652 9.04983L14 22.7501Z" fill="#343330"/>
</svg>
